<?xml version="1.0" encoding="utf-8"?>
<!-- Generator: Adobe Illustrator 24.0.2, SVG Export Plug-In . SVG Version: 6.00 Build 0)  -->
<svg version="1.1" id="Capa_1" xmlns="http://www.w3.org/2000/svg" xmlns:xlink="http://www.w3.org/1999/xlink" x="0px" y="0px"
	 viewBox="0 0 480 480" enable-background="new 0 0 480 480" xml:space="preserve">
<g>
	<g>
		<polygon fill="#5AB1BB" points="258.3,58.3 240,76.7 221.7,58.3 210.3,69.7 232,91.3 232,128 248,128 248,91.3 269.7,69.7 		"/>
	</g>
</g>
<g>
	<g>
		<path fill="#5AB1BB" d="M388,200c-38,0-70.6,23.1-84.6,56h-28L248,228.7V192h16c4.4,0,8-3.6,8-8v-30.7c28.9-12.6,48-41.4,48-73.3
			c0-44.1-35.9-80-80-80s-80,35.9-80,80c0,31.9,19.1,60.6,48,73.3V184c0,4.4,3.6,8,8,8h16v36.7L204.7,256h-28
			c-14-32.9-46.7-56-84.7-56c-50.7,0-92,41.3-92,92v180c0,4.4,3.6,8,8,8h96c4.4,0,8-3.6,8-8v-40h64c4.4,0,8-3.6,8-8v-40h24
			c2.8,0,5.3-1.4,6.8-3.8c1.5-2.4,1.6-5.3,0.4-7.8L184,310.1V292c0-6.9-0.8-13.5-2.3-20H208c2.1,0,4.2-0.8,5.7-2.3l26.3-26.4
			l26.3,26.3c1.5,1.5,3.5,2.3,5.7,2.3h26.3c-1.4,6.5-2.3,13.1-2.3,20v18.1l-31.2,62.3c-1.2,2.5-1.1,5.4,0.4,7.8
			c1.5,2.4,4,3.8,6.8,3.8h24v40c0,4.4,3.6,8,8,8h64v40c0,4.4,3.6,8,8,8h64c22.1,0,40-17.9,40-40V292C480,241.3,438.7,200,388,200z
			 M195.1,368H176c-4.4,0-8,3.6-8,8v40h-64c-4.4,0-8,3.6-8,8v40H16V292c0-41.9,34.1-76,76-76c28.9,0,54.1,16.2,66.9,40h-24.4
			c-3.3-9.3-12.1-16-22.5-16c-13.2,0-24,10.8-24,24c0,13.2,10.8,24,24,24c10.4,0,19.2-6.7,22.5-16h30.7c1.7,6.4,2.8,13.1,2.8,20v20
			c0,1.2,0.3,2.5,0.8,3.6L195.1,368z M120,264c0,4.4-3.6,8-8,8s-8-3.6-8-8s3.6-8,8-8S120,259.6,120,264z M224,176v-28.2
			c0-3.4-2.1-6.4-5.3-7.5C193.1,131.2,176,107,176,80c0-35.3,28.7-64,64-64s64,28.7,64,64c0,27-17.1,51.2-42.7,60.3
			c-3.2,1.1-5.3,4.1-5.3,7.5V176H224z M464,440c0,13.2-10.8,24-24,24h-56v-40c0-4.4-3.6-8-8-8h-64v-40c0-4.4-3.6-8-8-8h-19.1
			l26.2-52.4c0.6-1.1,0.9-2.3,0.9-3.6v-20c0-6.9,1-13.6,2.8-20h30.7c3.3,9.3,12.1,16,22.5,16c13.2,0,24-10.8,24-24s-10.8-24-24-24
			c-10.4,0-19.2,6.7-22.5,16h-24.4c12.9-23.8,38-40,66.9-40c41.9,0,76,34.1,76,76V440z M360,264c0-4.4,3.6-8,8-8s8,3.6,8,8
			s-3.6,8-8,8S360,268.4,360,264z"/>
	</g>
</g>
<g>
	<g>
		<rect x="344" y="72" fill="#5AB1BB" width="16" height="16"/>
	</g>
</g>
<g>
	<g>
		<rect x="376" y="72" fill="#5AB1BB" width="16" height="16"/>
	</g>
</g>
<g>
	<g>
		<rect x="376" y="104" fill="#5AB1BB" width="16" height="16"/>
	</g>
</g>
<g>
	<g>
		<rect x="376" y="40" fill="#5AB1BB" width="16" height="16"/>
	</g>
</g>
<g>
	<g>
		<rect x="120" y="72" fill="#5AB1BB" width="16" height="16"/>
	</g>
</g>
<g>
	<g>
		<rect x="88" y="72" fill="#5AB1BB" width="16" height="16"/>
	</g>
</g>
<g>
	<g>
		<rect x="88" y="40" fill="#5AB1BB" width="16" height="16"/>
	</g>
</g>
<g>
	<g>
		<rect x="88" y="104" fill="#5AB1BB" width="16" height="16"/>
	</g>
</g>
</svg>
