<svg id="Layer_1" data-name="Layer 1" xmlns="http://www.w3.org/2000/svg" xmlns:xlink="http://www.w3.org/1999/xlink" viewBox="0 0 939.75 245"><defs><style>.cls-1{fill:none;}.cls-2{clip-path:url(#clip-path);}.cls-3{fill:#5ab1ba;}.cls-4{fill:#fff;}.cls-5{clip-path:url(#clip-path-2);}.cls-6{fill:#5bb13f;}</style><clipPath id="clip-path"><circle id="SVGID" class="cls-1" cx="122.79" cy="-142.69" r="102.97"/></clipPath><clipPath id="clip-path-2"><circle id="SVGID-2" data-name="SVGID" class="cls-1" cx="122.79" cy="122.32" r="102.97"/></clipPath></defs><title>Artboard 1 copy</title><g class="cls-2"><path class="cls-3" d="M-44.59-136.19c10.3-.78,6.47,1.66,16.17-1.68,3-.5,6.58,0,9.42-1.34a135.85,135.85,0,0,0,24.12-3.11c1.4-1.4,4.1-.11,6.22-.74,3.45.07,6.59.51,10-.42,3-.27,6.75.54,9.7-.83,12.33-.38.64-3.66,17-4,21.42,2.16,27.28-7,30.9-2.38,1.65-.75,4.37-.06,6.42-1.25.85-.55,1.88.43,2.82-.39,3.12-2.06,14-4.53,14-4.53l11,5.12-.54-1.68,11.72-2,7.72-1.63s3.31.67,7.34,1.51c5.86,1.23,13.24,2.82,14.22,3.26.23-.28-1.31,4.5-.72,6.34l8.25,6.67s3.83,2.66,4,3.18c0,0,8.53,8.28,9.06,8.92,1.07,1.28,1.83,3.07,3,4.3s1,4.78,2,6.05.58,3.93,1.89,4.68c.49.28,3.32,1.82,3.85,2A3.47,3.47,0,0,1,186.4-109c.82,1,4,4,5.25,4.25s5.11,5.25,6.51,5.67c1.57.46,2.6,4.23,3.4,4.25-.8,0,15.46,12.21,15.59,12.18,1.47-.3,3-7.72,4.47-7.61a36.68,36.68,0,0,1,3.89.52,25.1,25.1,0,0,0,3.87.47,62.27,62.27,0,0,0,7.46-.67c9.49,5.61,22,6.17,31.87,11.43,9.86,4.24,19.05,10,29.77,12.58,23.2,4.45,25.81,6,33.65,7.57,11.51,2.38,8.22-.85,7.8,8.44L242,13.67-37.75-33.28C-31.4-89.38-48.94-135.56-44.59-136.19Z"/></g><path d="M479.44,227.29h0Z"/><path class="cls-4" d="M413.39,198.29l0,.17,0,0Z"/><path class="cls-4" d="M361.24,200.08a.1.1,0,0,0,.05,0v0Z"/><path class="cls-4" d="M375.24,171.21l.18-.06v0Z"/><path class="cls-4" d="M370.26,200.92h-.1Z"/><path class="cls-4" d="M258.67,84.29V55.72h11.22q4.44,0,6.72,2a7.14,7.14,0,0,1,1.13,9.12,5.92,5.92,0,0,1-2.88,2.24,7.86,7.86,0,0,1,3.42,2.32,6.48,6.48,0,0,1,1.52,4.46A7.62,7.62,0,0,1,277.13,82a10.39,10.39,0,0,1-6.91,2.26Zm4.15-16.81h6.37q5.43,0,5.43-4.19a3.73,3.73,0,0,0-1.3-3,5.3,5.3,0,0,0-3.63-1.13h-6.87Zm0,3.45v9.9h6.78a6.63,6.63,0,0,0,4.28-1.25,4.49,4.49,0,0,0,1.56-3.72q0-4.94-6.45-4.93Z"/><path class="cls-4" d="M297.43,55.31a12.24,12.24,0,0,1,9.59,4,15.2,15.2,0,0,1,3.6,10.52,16,16,0,0,1-3.54,10.56q-3.52,4.27-10,4.28a12,12,0,0,1-9.68-4.15A15.74,15.74,0,0,1,283.91,70a15.54,15.54,0,0,1,3.59-10.54Q291.1,55.31,297.43,55.31Zm-.17,3.58a7.71,7.71,0,0,0-6.68,3.1,13.22,13.22,0,0,0-2.24,7.91,13.25,13.25,0,0,0,2.35,8,7.68,7.68,0,0,0,6.57,3.2,8.09,8.09,0,0,0,5.14-1.6,8.76,8.76,0,0,0,2.92-4,16.67,16.67,0,0,0,.86-5.53A13.11,13.11,0,0,0,303.9,62,7.71,7.71,0,0,0,297.26,58.89Z"/><path class="cls-4" d="M316.45,84.29V55.72h4.19V69.49q.25-.28,5.55-5.67t7.85-8.1h5.22l-12.12,12,12.7,16.52H334.7L324.18,70.48l-3.54,3.24V84.29Z"/><path class="cls-4" d="M342.14,55.72h4.27V72.9c0,3,.67,5.11,2,6.37a7.1,7.1,0,0,0,5.08,1.89,6.9,6.9,0,0,0,5.2-1.89q1.83-1.89,1.83-6.37V55.72h4.23V72.66q0,12-11.34,12a14.74,14.74,0,0,1-4.34-.6,10.29,10.29,0,0,1-3.55-1.91A8.51,8.51,0,0,1,343,78.49a15.81,15.81,0,0,1-.88-5.59Z"/><path class="cls-4" d="M258.67,134.56V106h4.2v13.77q.24-.28,5.54-5.67t7.85-8.1h5.22l-12.12,12,12.7,16.52h-5.14L266.4,120.75,262.87,124v10.56Z"/><path class="cls-4" d="M293.19,113.15a9,9,0,0,1,7.05,3,11.45,11.45,0,0,1,2.65,7.91,11.84,11.84,0,0,1-2.63,7.89,9,9,0,0,1-7.31,3.13,8.89,8.89,0,0,1-7.11-3.07,13,13,0,0,1,0-15.76A9.18,9.18,0,0,1,293.19,113.15Zm4.09,5.38a5,5,0,0,0-4.25-2,4.87,4.87,0,0,0-4.21,2,9.35,9.35,0,0,0-1.46,5.59,9.08,9.08,0,0,0,1.56,5.53,5,5,0,0,0,4.19,2.12,4.88,4.88,0,0,0,4.17-2.06,11.09,11.09,0,0,0,0-11.14Z"/><path class="cls-4" d="M307.45,134.56V119c0-2.44,0-4.23,0-5.39h3.86a23.91,23.91,0,0,1,.17,3.09,7,7,0,0,1,9.66-2.59,5.36,5.36,0,0,1,2.09,2.63,7.16,7.16,0,0,1,6.62-3.62,6.39,6.39,0,0,1,4.74,1.87q1.88,1.88,1.87,5.82v13.72h-3.94V121.29a6,6,0,0,0-.9-3.37,3.39,3.39,0,0,0-3.05-1.36,4,4,0,0,0-3.47,1.58,7.54,7.54,0,0,0-1.13,4.42v12H320V121.45q0-4.89-3.87-4.89a4,4,0,0,0-3.49,1.71,8.11,8.11,0,0,0-1.19,4.7v11.59Z"/><path class="cls-4" d="M346.45,142.74h-4v-24c0-2.3,0-4-.05-5.1h3.91a26.19,26.19,0,0,1,.16,3.17q1.94-3.66,6.66-3.66a7.47,7.47,0,0,1,6,2.84,11.5,11.5,0,0,1,2.34,7.56c0,3.61-.86,6.44-2.59,8.46a8.2,8.2,0,0,1-6.53,3.05c-2.82,0-4.79-1-5.92-2.92Zm10.89-19a8.77,8.77,0,0,0-1.41-5.24,4.6,4.6,0,0,0-3.93-2,5,5,0,0,0-4.4,1.89,9.76,9.76,0,0,0-1.35,5.67,10.42,10.42,0,0,0,1.25,5.69,4.65,4.65,0,0,0,4.21,1.91,4.75,4.75,0,0,0,4.19-2.09A10.3,10.3,0,0,0,357.34,123.71Z"/><path class="cls-4" d="M383.48,124.86H368.93a8.25,8.25,0,0,0,1.48,5,4.68,4.68,0,0,0,3.95,1.91,5,5,0,0,0,3.14-.83,5.18,5.18,0,0,0,1.62-2.22h4.07a11.65,11.65,0,0,1-.94,2.16,9.68,9.68,0,0,1-1.59,2,7.12,7.12,0,0,1-2.67,1.6,11,11,0,0,1-3.76.6,8.23,8.23,0,0,1-7-3.13,12.19,12.19,0,0,1-2.37-7.6,12.55,12.55,0,0,1,2.49-8.06,8.58,8.58,0,0,1,7.13-3.12,9.48,9.48,0,0,1,4.27.91,7.06,7.06,0,0,1,2.86,2.38,11,11,0,0,1,1.48,3.16,13.27,13.27,0,0,1,.47,3.54A14.24,14.24,0,0,1,383.48,124.86Zm-14.43-2.75h10.44a6.73,6.73,0,0,0-1.31-4.21,4.48,4.48,0,0,0-3.74-1.63C371.23,116.27,369.44,118.22,369.05,122.11Z"/><path class="cls-4" d="M385.66,116.85v-3.21h3.53v-6.08h4v6.08h4.52v3.21h-4.52v11.88a3.91,3.91,0,0,0,.49,2.24,2.17,2.17,0,0,0,1.85.67,6.56,6.56,0,0,0,1.73-.16v3a10.57,10.57,0,0,1-3.25.37,4.73,4.73,0,0,1-3.7-1.29,5.91,5.91,0,0,1-1.15-4v-12.7Z"/><path class="cls-4" d="M418.49,124.86H403.94a8.25,8.25,0,0,0,1.48,5,4.69,4.69,0,0,0,3.95,1.91,5,5,0,0,0,3.14-.83,5.28,5.28,0,0,0,1.63-2.22h4.06a11,11,0,0,1-.94,2.16,10,10,0,0,1-1.58,2,7.2,7.2,0,0,1-2.67,1.6,11.07,11.07,0,0,1-3.76.6,8.24,8.24,0,0,1-7-3.13,12.19,12.19,0,0,1-2.36-7.6,12.55,12.55,0,0,1,2.48-8.06,8.59,8.59,0,0,1,7.13-3.12,9.56,9.56,0,0,1,4.28.91,7.1,7.1,0,0,1,2.85,2.38,10.72,10.72,0,0,1,1.48,3.16,12.88,12.88,0,0,1,.47,3.54A12.41,12.41,0,0,1,418.49,124.86Zm-14.42-2.75h10.44a6.8,6.8,0,0,0-1.32-4.21,4.48,4.48,0,0,0-3.74-1.63C406.25,116.27,404.45,118.22,404.07,122.11Z"/><path class="cls-4" d="M423.05,134.56V118.9c0-2.43,0-4.19,0-5.26H427a28.28,28.28,0,0,1,.16,3.29q1.72-3.78,6.45-3.78a6.67,6.67,0,0,1,5.08,2q1.91,2,1.91,6v13.44h-4V121.62q0-5.06-4.23-5.06c-3.45,0-5.18,2.28-5.18,6.82v11.18Z"/><path class="cls-4" d="M444.46,134.56v-3.2L456.18,117H445v-3.33h15.74V117l-11.55,14.26h12.12l-.57,3.33Z"/><path class="cls-4" d="M463.82,128.52h4c.54,2.28,2.17,3.41,4.89,3.41s4-1,4-3a2.57,2.57,0,0,0-1-2.15,10.81,10.81,0,0,0-3.76-1.46q-4.37-1-5.86-2.47a5,5,0,0,1-1.5-3.78,5.46,5.46,0,0,1,1.93-4.21q1.94-1.75,5.8-1.75c2.57,0,4.52.6,5.83,1.79a6.32,6.32,0,0,1,2.18,4.29h-3.86c-.47-2-1.91-3-4.32-3a4.11,4.11,0,0,0-2.73.74,2.37,2.37,0,0,0-.84,1.85,2.07,2.07,0,0,0,.9,1.79,11.91,11.91,0,0,0,3.66,1.29q4.56,1.08,6.12,2.65a5.65,5.65,0,0,1,1.56,4.13,5.76,5.76,0,0,1-2.15,4.63,9.41,9.41,0,0,1-6.15,1.79,9.52,9.52,0,0,1-6.16-1.77A7.14,7.14,0,0,1,463.82,128.52Z"/><path class="cls-4" d="M482.64,116.85v-3.21h3.53v-6.08h4v6.08h4.52v3.21H490.2v11.88a4,4,0,0,0,.49,2.24,2.17,2.17,0,0,0,1.85.67,6.51,6.51,0,0,0,1.73-.16v3a10.52,10.52,0,0,1-3.25.37,4.73,4.73,0,0,1-3.7-1.29,6,6,0,0,1-1.15-4v-12.7Z"/><path class="cls-4" d="M515.48,124.86H500.93a8.25,8.25,0,0,0,1.48,5,4.67,4.67,0,0,0,3.94,1.91,5,5,0,0,0,3.15-.83,5.18,5.18,0,0,0,1.62-2.22h4.07a11.05,11.05,0,0,1-1,2.16,9.61,9.61,0,0,1-1.58,2,7.12,7.12,0,0,1-2.67,1.6,11,11,0,0,1-3.76.6,8.25,8.25,0,0,1-7-3.13,12.25,12.25,0,0,1-2.36-7.6,12.55,12.55,0,0,1,2.49-8.06,8.57,8.57,0,0,1,7.13-3.12,9.51,9.51,0,0,1,4.27.91,7.2,7.2,0,0,1,2.86,2.38,11,11,0,0,1,1.48,3.16,13.27,13.27,0,0,1,.47,3.54A14.24,14.24,0,0,1,515.48,124.86Zm-14.43-2.75h10.44a6.86,6.86,0,0,0-1.31-4.21,4.49,4.49,0,0,0-3.75-1.63C503.23,116.27,501.43,118.22,501.05,122.11Z"/><path class="cls-4" d="M524.19,134.56h-4V104.44h4Z"/><path class="cls-4" d="M534.21,134.56h-4V104.44h4Z"/><path class="cls-4" d="M557.39,124.86H542.84a8.25,8.25,0,0,0,1.48,5,4.69,4.69,0,0,0,3.95,1.91,5,5,0,0,0,3.14-.83,5.18,5.18,0,0,0,1.62-2.22h4.07a11,11,0,0,1-.94,2.16,10,10,0,0,1-1.58,2,7.24,7.24,0,0,1-2.68,1.6,11,11,0,0,1-3.76.6,8.23,8.23,0,0,1-7-3.13,12.19,12.19,0,0,1-2.37-7.6,12.55,12.55,0,0,1,2.49-8.06,8.59,8.59,0,0,1,7.13-3.12,9.56,9.56,0,0,1,4.28.91,7.1,7.1,0,0,1,2.85,2.38A11,11,0,0,1,557,119.6a13.27,13.27,0,0,1,.47,3.54A12.41,12.41,0,0,1,557.39,124.86ZM543,122.11H553.4a6.73,6.73,0,0,0-1.31-4.21,4.48,4.48,0,0,0-3.74-1.63Q543.54,116.27,543,122.11Z"/><path class="cls-4" d="M262.66,184.84h-4V167.13h-3.28v-3.21h3.28v-2.38a8.61,8.61,0,0,1,1.48-5.24,5.5,5.5,0,0,1,4.73-2,8.37,8.37,0,0,1,2.38.25v3.37a7,7,0,0,0-1.72-.16,2.46,2.46,0,0,0-2.18.94,5.61,5.61,0,0,0-.66,3.12v2.1h4.11v3.21h-4.11Z"/><path class="cls-4" d="M287,163.92v14.84c0,.71,0,1.8,0,3.26s0,2.41,0,2.82h-3.95a24.65,24.65,0,0,1-.12-3c-1.1,2.33-3.16,3.49-6.2,3.49a7,7,0,0,1-5-1.83q-1.93-1.83-1.93-5.85V163.92h4v12.86q0,5.1,4.11,5.1a4.41,4.41,0,0,0,3.86-1.62q1.15-1.63,1.15-5.41V163.92Zm-10.64-4.56h-3.46v-4.65h3.46Zm7.6,0h-3.41v-4.65H284Z"/><path class="cls-4" d="M293,184.84V169.59c0-1,0-2.18,0-3.41s0-2,0-2.26h3.94a40.39,40.39,0,0,1,.13,4.15,7.09,7.09,0,0,1,2.63-3.35,7.63,7.63,0,0,1,4.35-1.29v4q-7,.14-7,7.48v10Z"/><path class="cls-4" d="M318.84,184.84V156.28H323V170q.24-.28,5.55-5.67t7.84-8.09h5.22l-12.12,12,12.7,16.52h-5.14L326.56,171,323,174.28v10.56Z"/><path class="cls-4" d="M349.25,184.84h-4V154.71h4Z"/><path class="cls-4" d="M359.27,159.36h-4v-4.65h4Zm-4,25.48V163.92h4v20.92Z"/><path class="cls-4" d="M365.27,184.84V169.3c0-2.43,0-4.23,0-5.38h3.86a23.75,23.75,0,0,1,.17,3.08,7,7,0,0,1,9.65-2.59A5.37,5.37,0,0,1,381,167a7.14,7.14,0,0,1,6.62-3.61,6.4,6.4,0,0,1,4.74,1.87q1.88,1.86,1.87,5.81v13.73H390.3V171.56a5.91,5.91,0,0,0-.91-3.37,3.38,3.38,0,0,0-3-1.35,4,4,0,0,0-3.47,1.58,7.52,7.52,0,0,0-1.13,4.42v12H377.8V171.73c0-3.26-1.28-4.89-3.86-4.89a4,4,0,0,0-3.49,1.7,8.09,8.09,0,0,0-1.19,4.71v11.59Z"/><path class="cls-4" d="M415.9,170.33v9.78a26.4,26.4,0,0,0,.29,4.73h-3.82a13.63,13.63,0,0,1-.37-2.59q-1.61,3.08-6.33,3.08a6.92,6.92,0,0,1-5.28-1.89,6.32,6.32,0,0,1-1.79-4.52,5.79,5.79,0,0,1,2.57-5.16q2.56-1.69,7.33-1.7H412v-1.69c0-2.57-1.42-3.86-4.24-3.86a4.32,4.32,0,0,0-3.08.84,4.72,4.72,0,0,0-1.15,2.36h-3.9a6.82,6.82,0,0,1,2.17-4.52q1.94-1.8,6.09-1.76Q415.91,163.43,415.9,170.33Zm-3.9,5.1v-.66h-3.21q-6.07,0-6.08,3.9a3.41,3.41,0,0,0,1,2.59,3.9,3.9,0,0,0,2.83,1,6.66,6.66,0,0,0,2.86-.54,3.41,3.41,0,0,0,1.66-1.56,7,7,0,0,0,.72-2.11A16.23,16.23,0,0,0,412,175.43Z"/><path class="cls-4" d="M421.94,184.84V169.18c0-2.44,0-4.19,0-5.26h4a28.15,28.15,0,0,1,.16,3.29q1.73-3.78,6.45-3.78a6.7,6.7,0,0,1,5.08,2q1.9,2,1.91,6v13.44h-4v-13q0-5.05-4.23-5-5.18,0-5.18,6.82v11.18Z"/><path class="cls-4" d="M462.58,175.14H448a8.13,8.13,0,0,0,1.48,5,4.66,4.66,0,0,0,3.94,1.91,5,5,0,0,0,3.14-.82,5.41,5.41,0,0,0,1.63-2.22h4.07a11.68,11.68,0,0,1-.95,2.16,9.57,9.57,0,0,1-1.58,2,7,7,0,0,1-2.67,1.6,11.07,11.07,0,0,1-3.76.6,8.25,8.25,0,0,1-7-3.12A12.28,12.28,0,0,1,444,174.6a12.58,12.58,0,0,1,2.48-8,8.59,8.59,0,0,1,7.13-3.12,9.66,9.66,0,0,1,4.28.9,7.18,7.18,0,0,1,2.85,2.38,10.53,10.53,0,0,1,1.48,3.17,12.81,12.81,0,0,1,.48,3.53A12.14,12.14,0,0,1,462.58,175.14Zm-14.42-2.75H458.6a6.85,6.85,0,0,0-1.32-4.22,4.46,4.46,0,0,0-3.74-1.62C450.34,166.55,448.54,168.5,448.16,172.39Z"/><path class="cls-4" d="M484.24,163.92v14.84c0,.71,0,1.8,0,3.26s0,2.41,0,2.82h-3.94a24,24,0,0,1-.13-3q-1.63,3.49-6.2,3.49a7,7,0,0,1-5-1.83q-1.94-1.83-1.94-5.85V163.92h4v12.86q0,5.1,4.11,5.1a4.39,4.39,0,0,0,3.86-1.62q1.15-1.63,1.15-5.41V163.92Z"/><path class="cls-4" d="M488.1,167.13v-3.21h3.54v-6.08h4v6.08h4.52v3.21h-4.52V179a3.89,3.89,0,0,0,.49,2.24,2.16,2.16,0,0,0,1.85.68,6.87,6.87,0,0,0,1.72-.16v3a10.77,10.77,0,0,1-3.24.37,4.72,4.72,0,0,1-3.7-1.3,5.89,5.89,0,0,1-1.15-4V167.13Z"/><path class="cls-4" d="M503.8,184.84V169.59c0-1,0-2.18,0-3.41s0-2,0-2.26h3.95c.08.58.12,2,.12,4.15a7.15,7.15,0,0,1,2.63-3.35,7.69,7.69,0,0,1,4.36-1.29v4q-7,.14-7,7.48v10Z"/><path class="cls-4" d="M533.8,170.33v9.78a26.4,26.4,0,0,0,.29,4.73h-3.82a13.63,13.63,0,0,1-.37-2.59q-1.6,3.08-6.33,3.08a6.92,6.92,0,0,1-5.28-1.89,6.36,6.36,0,0,1-1.79-4.52,5.79,5.79,0,0,1,2.57-5.16c1.71-1.13,4.16-1.7,7.33-1.7h3.46v-1.69c0-2.57-1.42-3.86-4.24-3.86a4.32,4.32,0,0,0-3.08.84,4.72,4.72,0,0,0-1.15,2.36h-3.9a6.86,6.86,0,0,1,2.17-4.52q1.94-1.8,6.09-1.76Q533.81,163.43,533.8,170.33Zm-3.9,5.1v-.66h-3.21q-6.08,0-6.08,3.9a3.41,3.41,0,0,0,1,2.59,3.9,3.9,0,0,0,2.83,1,6.63,6.63,0,0,0,2.86-.54,3.41,3.41,0,0,0,1.66-1.56,7,7,0,0,0,.72-2.11A15.16,15.16,0,0,0,529.9,175.43Z"/><path class="cls-4" d="M543.87,184.84h-4V154.71h4Z"/><path class="cls-4" d="M553.9,159.36h-4v-4.65h4Zm-4,25.48V163.92h4v20.92Z"/><path class="cls-4" d="M557.47,167.13v-3.21H561v-6.08h4v6.08h4.52v3.21H565V179a3.88,3.88,0,0,0,.5,2.24,2.14,2.14,0,0,0,1.85.68,6.93,6.93,0,0,0,1.72-.16v3a10.8,10.8,0,0,1-3.25.37,4.71,4.71,0,0,1-3.69-1.3,5.89,5.89,0,0,1-1.15-4V167.13Z"/><path class="cls-4" d="M589.24,170.33v9.78a25.47,25.47,0,0,0,.29,4.73H585.7a14.54,14.54,0,0,1-.37-2.59q-1.59,3.08-6.32,3.08a7,7,0,0,1-5.29-1.89,6.35,6.35,0,0,1-1.78-4.52,5.77,5.77,0,0,1,2.57-5.16q2.57-1.69,7.33-1.7h3.45v-1.69q0-3.85-4.23-3.86a4.3,4.3,0,0,0-3.08.84,4.72,4.72,0,0,0-1.15,2.36h-3.91a6.87,6.87,0,0,1,2.18-4.52q1.93-1.8,6.08-1.76Q589.23,163.43,589.24,170.33Zm-10-11H575.8v-4.65h3.45Zm6.08,16.07v-.66h-3.2c-4.06,0-6.08,1.3-6.08,3.9a3.44,3.44,0,0,0,1,2.59,3.93,3.93,0,0,0,2.84,1,6.66,6.66,0,0,0,2.86-.54,3.46,3.46,0,0,0,1.66-1.56,7,7,0,0,0,.72-2.11A16.34,16.34,0,0,0,585.33,175.43Zm1.52-16.07h-3.41v-4.65h3.41Z"/><path class="cls-4" d="M592.4,167.13v-3.21h3.54v-6.08h4v6.08h4.52v3.21H600V179a3.88,3.88,0,0,0,.5,2.24,2.16,2.16,0,0,0,1.85.68,6.87,6.87,0,0,0,1.72-.16v3a10.77,10.77,0,0,1-3.24.37,4.72,4.72,0,0,1-3.7-1.3,5.89,5.89,0,0,1-1.15-4V167.13Z"/><path class="cls-4" d="M342.39,122.42h0l-.65.16Z"/><g class="cls-5"><path class="cls-3" d="M196.5,52.67Z"/><path class="cls-3" d="M223.25,52.72Z"/><path class="cls-3" d="M207.21,72.37Z"/><path class="cls-3" d="M205.68,54.45Z"/><path class="cls-3" d="M185.78,68.56v0l0,0v0Z"/><path class="cls-3" d="M211.8,82.26Z"/><path class="cls-3" d="M219.09,66.11Z"/><path class="cls-3" d="M210.52,70.59s0,0,0,0Z"/><path class="cls-3" d="M246.91,64.08s0,0,0,0Z"/><path class="cls-3" d="M187.22,54.73Z"/><path class="cls-3" d="M207.27,46v0l0,0a0,0,0,0,0,0,0A0,0,0,0,0,207.27,46Z"/><path class="cls-3" d="M194.54,70.19s0,0,0,0Z"/><path class="cls-3" d="M210.71,87Z"/><path class="cls-3" d="M204.4,41.09l-.05,0v0l0,0Z"/><path class="cls-3" d="M190,56Z"/><path class="cls-3" d="M196.28,86.27s0,0,0,0Z"/><path class="cls-3" d="M224.88,52.7Z"/><path class="cls-3" d="M245.39,61.91Z"/><path class="cls-3" d="M208.79,68.92Z"/><path class="cls-3" d="M186.94,53c-.05,0,0,0,0,0Z"/><path class="cls-3" d="M-44.59,128.82c10.3-.78,6.47,1.66,16.17-1.68,3-.49,6.58,0,9.42-1.34a135.85,135.85,0,0,0,24.12-3.11c1.4-1.4,4.1-.11,6.22-.74,3.45.07,6.59.51,10-.42,3-.26,6.75.54,9.7-.83,12.33-.38.64-3.66,17-4,21.42,2.15,27.28-7,30.9-2.39,1.65-.75,4.37-.06,6.42-1.25.85-.54,1.88.43,2.82-.38,3.12-2.07,14-4.53,14-4.53l11,5.11-.54-1.68,11.72-2,7.72-1.62s3.31.66,7.34,1.51c5.86,1.22,13.24,2.81,14.22,3.25.23-.27-1.31,4.5-.72,6.34l8.25,6.67s3.83,2.67,4,3.18c0,0,8.53,8.29,9.06,8.92,1.07,1.29,1.83,3.07,3,4.3s1,4.78,2,6,.58,3.94,1.89,4.68c.49.28,3.32,1.82,3.85,2A3.47,3.47,0,0,1,186.4,156c.82,1,4,4,5.25,4.26s5.11,5.24,6.51,5.66c1.57.47,2.6,4.23,3.4,4.25-.8,0,15.46,12.21,15.59,12.18,1.47-.3,3-7.72,4.47-7.61a36.68,36.68,0,0,1,3.89.52,25.1,25.1,0,0,0,3.87.47,64.38,64.38,0,0,0,7.46-.66c9.49,5.6,22,6.16,31.87,11.42,9.86,4.25,19.05,10,29.77,12.59,23.2,4.44,25.81,6,33.65,7.57,11.51,2.37,8.22-.85,7.8,8.43L242,278.68l-279.76-47C-31.4,175.63-48.94,129.46-44.59,128.82Z"/><path class="cls-3" d="M185.49,116.82c0-.51.07-1,.09-1.55s.5-1,.28-1.49c-.14-.06-.81-.21-1-.28l-.68-.38a3.83,3.83,0,0,0-1.62-.53s-.62.37-.72.43.31.12.35.35c-1.42-.13-1.18,0-1.48.25a.62.62,0,0,0-.26.69c.07.33.3.39.71.8a9.21,9.21,0,0,0,.88,1.07,3.92,3.92,0,0,0,1.58.63,1,1,0,0,1,.43,0,2.65,2.65,0,0,0,1.33.27h.07C185.5,117,185.49,116.92,185.49,116.82Z"/><path class="cls-3" d="M213.54,44.84Z"/><path class="cls-3" d="M182.62,17.74Z"/><path class="cls-3" d="M160.57,13.42v0l0,0v0Z"/><path class="cls-3" d="M112.69,25.59Z"/><path class="cls-3" d="M194.45,11.62s0,0,0,0Z"/><path class="cls-3" d="M186,16Z"/><path class="cls-3" d="M237.39,56.89s0,0,0,0Z"/><path class="cls-3" d="M202,46.05s0,0,0,0h0s0,0,0,0Z"/><path class="cls-3" d="M169.77,15.26Z"/><path class="cls-3" d="M190.13,57.81l0,0,0,0,0,0Z"/><path class="cls-3" d="M215.2,44.86Z"/><path class="cls-3" d="M235.89,54.65Z"/><path class="cls-3" d="M184.3,14.25Z"/><path class="cls-3" d="M136.27,77.61s.09.11.1.17c.14.59.26,1.19.42,1.78.09.3.25.58.35.88a2.36,2.36,0,0,1,.14,1.24,1.16,1.16,0,0,0,.05.36,6.4,6.4,0,0,1,.14.63,7.54,7.54,0,0,0,1.38.92,17.6,17.6,0,0,0,2.16.9c.73.26,3.11,1.14,3.53,1.36l.11.08a5.37,5.37,0,0,0,1.94.79,2.72,2.72,0,0,0,1-.15.76.76,0,0,0,.21-.08,1.47,1.47,0,0,1,1-.11c.15,0,1.29.32,1.32.48a1.81,1.81,0,0,0,.69,1.12,1.48,1.48,0,0,1,.48.54.56.56,0,0,0,.44.28.79.79,0,0,1,.48.34.48.48,0,0,0,.65.17.27.27,0,0,1,.32,0,1.14,1.14,0,0,0,.16.15.47.47,0,0,0,.72-.09.51.51,0,0,1,.49-.26c.14,0,.28.07.41.08.36,0,.47.12.67-.24.37.25,25.93,25.75,26.72,25.24l.29-1.27c-.43.12-28-26.35-27.83-26.81,0-.12-.05-.21,0-.32a.57.57,0,0,0-.17-.69,7.09,7.09,0,0,0-1-.67,1.25,1.25,0,0,0-1-.12.23.23,0,0,1-.14,0,2.16,2.16,0,0,0-.87-.23c-.11,0-1.58-.67-1.9-.83l-.16-.1c-.13-.08-.26-.17-.4-.24s-.26-.11-.39-.18a.22.22,0,0,1-.09-.1,1.53,1.53,0,0,0-.56-.62,1.5,1.5,0,0,1-.11-.13c-.07-.07-.12-.16-.2-.2a.91.91,0,0,1-.43-.32A25.52,25.52,0,0,1,145,79.16a3.59,3.59,0,0,1-.18-.51,4.94,4.94,0,0,0,.26-.57c.14-.39.9-2.86.94-2.94.2-.4.27-4.65.3-4.71s-.74.36-.76.32c-1.77-.44.44,1.42-1.33,1s-3.29-.73-4.94-1c-.83-.16-1.67-.3-2.5-.42l-.65-.1c-.08.22-.16.43-.23.65a11.75,11.75,0,0,0-.52,2.26c0,.26,0,.53-.07.79a1.6,1.6,0,0,0,.11.81c.16.39.32.78.47,1.18a2.47,2.47,0,0,1,.13.79c-.34-.2-.61-.58-1-.57"/><path class="cls-3" d="M191.93,118.61c-.83-1.37,2.29-2.88,1.18-4.06,0,0-3.84,0-3.84,0l-.15,0c-.14,0-.27.09-.42.11a1.17,1.17,0,0,1-1.21-.23.67.67,0,0,0-.46-.22,2.6,2.6,0,0,1-1.49-.58l-.2-.11a3.46,3.46,0,0,1-.68.53c-.75.44-1.64.59-2.4,1a.8.8,0,0,1,0,.31,1.57,1.57,0,0,0,.21.24c.57.56,1.38.78,1.91,1.37a5.05,5.05,0,0,1,.53.24,8.55,8.55,0,0,0,1.35.6,19.54,19.54,0,0,0,4.21,1,6.31,6.31,0,0,1,.85.15,1.33,1.33,0,0,0,.82,0Z"/><path class="cls-3" d="M189.3,151.12a14.79,14.79,0,0,0,6-5.43,2.53,2.53,0,0,1,.61-.73c.9-.67,1.81-1.35,2.77-1.94s1.79-1,2.67-1.44l7.12-3.45a21.26,21.26,0,0,0,2.13-1.9,1.92,1.92,0,0,1,.48-.37,1.78,1.78,0,0,0,.75-.81c.23-.45.48-.9.71-1.36a2.21,2.21,0,0,0,.18-.51,7.27,7.27,0,0,1,.82-2,5,5,0,0,0,.66-1.69,23,23,0,0,0,.34-4.06c0-.41.06-.81.07-1.21,0-.61.06-1.22,0-1.82,0-.75-.18-1.49-.21-2.24a8.21,8.21,0,0,0-1-3.57c0-.09-.16-.19,0-.32l.23,0c.8.13,1,0,1.05-.8a4.43,4.43,0,0,1,0-.52,3.4,3.4,0,0,0-.75-2.6l-.49-.69a5.39,5.39,0,0,0,.39-2.42,2,2,0,0,0-.32-1,2.56,2.56,0,0,0-1.29-1.07,4.22,4.22,0,0,0-.45-.18,1.15,1.15,0,0,1-.88-.86.9.9,0,0,0-.39-.54,4.2,4.2,0,0,0-1.12-.46c-.55-.13-1.11-.19-1.67-.29a5,5,0,0,0-1.5,0,1.31,1.31,0,0,0-.79.31c-.32.3-.43.25-.92-.09l-.81.16a1.75,1.75,0,0,1-.8,1.66l-.32-.11a.54.54,0,0,0-.71.33,3.53,3.53,0,0,0-.17.49c-.11.36-.2.73-.31,1.08a1.2,1.2,0,0,1-.23.45c-.53.55-.53.54-.12,1.21a1.19,1.19,0,0,1-.82.9,7.91,7.91,0,0,1-.9.3c-.51.12-1,.15-1.36.66,0,0-.09.07-.14.09-.56.16-1,.67-1.56.73a.55.55,0,0,0-.32.26.71.71,0,0,1-.56.36,6.7,6.7,0,0,1-1.77.35.83.83,0,0,0-.5.14c-.33.22-1,.6-1.23.42-.13.41.1.41-.08.8-.54,1.22-1.27,2.34-1.88,3.52a1.57,1.57,0,0,0,.64.23,7.87,7.87,0,0,0,3,0,22.06,22.06,0,0,0,4.86-1.57,5,5,0,0,1,1.37-.4,15.83,15.83,0,0,0,.06,3.52c.17,1.13.49,2.24.76,3.4a2.35,2.35,0,0,1-1.65.47,5.32,5.32,0,0,0-.38-.45.67.67,0,0,0-1.15.13,3.38,3.38,0,0,0-.22.47,5.35,5.35,0,0,1-1.61.61,3.63,3.63,0,0,1-.86.08,1.11,1.11,0,0,0-1.05.48.93.93,0,0,1-.72.41c-.63.11-1.25.23-1.88.33a9.45,9.45,0,0,0-4.49,2,8.91,8.91,0,0,1-2.12,1.16,17,17,0,0,0-2.3,1.15c-1.78,1.05-3.53,2.14-5.29,3.21a4.86,4.86,0,0,1-1,.55,2.46,2.46,0,0,0-.06-.44c-.16-.51-.24-.57-.77-.52-.28,0-.81-.14-1.08,0-1.17.43-3.42-1.21-4.44-1.55s-2.81,1.21-2.67,1.33c.38.3.82.52,1.2.81s.6.52.92.76a11,11,0,0,0,1.16.76c.83.49,1.66,1,2.47,1.5s1.74,1.08,2.62,1.59a2,2,0,0,1,1.13-.79l1-.29c1.73-.49,3.46-.95,5.18-1.48a11,11,0,0,0,4.9-2.84,2.21,2.21,0,0,1,2-.68,10.11,10.11,0,0,0,1.65,0,9.9,9.9,0,0,1,2.24.16l2.4.43,2.49,1.6c-.16.17-3.52,3.65-3.65,3.8s-.46.58-.68.88l-1.33,1.83c-.31.41-.61.84-1,1.22a30,30,0,0,1-3.45,3.77,27.14,27.14,0,0,0-4.09,4c-.41.51.21-.76-1.69-.76a4.76,4.76,0,0,1-2.28-1c-.57-.57-1.17.15-1.3,0,.27,1.15-.83,3.72,0,4.64.49.56,3.45,1.08,3.9,1.68.29.38.49-1,.81-.63,0-.08.1,1.4.67.83.8-.8,2.2-2.17,1.24-1.92,0,0,1.35-.79,2.27-1.22C188.19,151.75,188.74,151.42,189.3,151.12ZM202,108.29a1.28,1.28,0,0,1,.23-1.16C202.32,107.91,202.32,107.91,202,108.29Z"/><path class="cls-3" d="M188.89,97.86Z"/><polygon class="cls-3" points="185.55 115.98 200.19 126.76 202.03 126.14 186.94 115.57 185.55 115.98"/><path class="cls-3" d="M110.13,77.58a2.59,2.59,0,0,1-.72-.86,2.11,2.11,0,0,0-.5-.58,3.52,3.52,0,0,0-.69-.53,3.42,3.42,0,0,1-1.28-1.49c-.15-.32-.35-.61-.48-.93s-.27-.82-.4-1.23a2,2,0,0,0-.18-.57,8.17,8.17,0,0,1-1-2.09,6.51,6.51,0,0,0-.31-.72,44.63,44.63,0,0,1-1.8-4.14,4.59,4.59,0,0,0-.28-.64,42.83,42.83,0,0,1-2.38-4.74c-.24-.55-.43-1.13-.63-1.71s-.42-1.2-.63-1.8c-.29-.82-.58-1.65-.89-2.46-.21-.54-.45-1.06-.69-1.59a1.52,1.52,0,0,0-.93-.86,11.49,11.49,0,0,0-2.3-.76,2.65,2.65,0,0,1-.53-.19c.06-.19.1-.35.16-.5a6.63,6.63,0,0,0,.56-3.9,2.51,2.51,0,0,1,0-.61,13.2,13.2,0,0,0-.22-2.94,4.1,4.1,0,0,0-3.79-3.48,1.1,1.1,0,0,0-.51.09,7.33,7.33,0,0,0-2.74,2.07,3.25,3.25,0,0,0-.65,1.41c-.13.86-.27,1.72-.34,2.59a6.38,6.38,0,0,0,.28,2.41,4.26,4.26,0,0,1,.08,1.81A1.8,1.8,0,0,1,85.45,50c-.4.24-.78.5-1.17.75-.15.09-.3.16-.44.26-.73.53-1.44,1.09-2.18,1.59a3.61,3.61,0,0,0-1.57,2.78,16.79,16.79,0,0,1-.57,2.89c-.11.42-.28.82-.43,1.23a23.76,23.76,0,0,0-.76,3.21,34.43,34.43,0,0,1-.94,3.89,4.13,4.13,0,0,0-.15.5,2.67,2.67,0,0,0,.42,2.32,3.77,3.77,0,0,1,.64,1.32,8.7,8.7,0,0,0,.32.9c.59,1.45,1.19,2.89,1.79,4.34.06.13.08.3.18.39.43.37,0,.6,1.15,1.55.11.09,2.12.24,2.19.36s0,1,.08,1.26-.24.71-.18,1A14.41,14.41,0,0,1,83.58,83c-.09.38-.15.66-.21.94a3.24,3.24,0,0,0-.07,1.72,3.6,3.6,0,0,1-.16,1.53A6.87,6.87,0,0,0,83,88.59c0,.72,0,1.45,0,2.18,0,.37.1.74.08,1.11s-.25.68-.22,1a7,7,0,0,1-.54,2.79,4.12,4.12,0,0,0-.12.59c0,.26-.09.52-.16.77-.29,1.09-.63,2.17-.85,3.28a12.94,12.94,0,0,0-.1,2.07c0,.47,0,.93,0,1.39,0,.26,0,.53,0,.78.09.69.2,1.38.31,2.07a1.53,1.53,0,0,1-.16,1.09,1.15,1.15,0,0,0-.06,1.16,2.14,2.14,0,0,1,.09.34.44.44,0,0,1-.7.4c-.23-.2-10.52,5.72-10.75,5.52,0,.15-1.19,8,8.72,3.32,1.12-.53.9-1.75,1.12-.53s1.46-2.43,2-1.33A5.19,5.19,0,0,0,83.39,119a4.3,4.3,0,0,0,2.25.59c.9,0,1.8-.07,2.69-.1a27.82,27.82,0,0,1,4,.11c1.43.15,2.85.37,4.28.49a14.43,14.43,0,0,0,4.3-.19c2.72-.63,5.3-1.74,8-2.46a12.18,12.18,0,0,1-.17-2.83c0-.89,2.62-2.87,2.56-3.76s-6-1.48-6.58-1.37a1.5,1.5,0,0,1-1.49-.45,3.2,3.2,0,0,0-.7-.37,1.36,1.36,0,0,0,.46-1.73c-.08-.28-.1-.57-.17-.85s-.16-.54-.26-.91c0-.08.08-.24.12-.4a1.68,1.68,0,0,0-.12-1.19,7.06,7.06,0,0,1-.33-1,5,5,0,0,1-.23-1.71,4.27,4.27,0,0,0-.07-1.47,16,16,0,0,0,0-2.59c.08-.85-.82-3.27-.74-3.81a1.63,1.63,0,0,0-.17-.75,5.12,5.12,0,0,1-.17-2.9,3.3,3.3,0,0,0,0-1.29c-.17-.9-.26-1.83-.4-2.75a2.34,2.34,0,0,0-.17-.75c-.25-.48-.17-2.74-.33-3.32-.77-2.66-2.14-5.21-2.36-8l0,0,0-.11c0-.25,0-.51,0-.76l-.07-.13a1.16,1.16,0,0,1,0-.93,2.89,2.89,0,0,0,0-1.37,3.59,3.59,0,0,1,.07-1.63c.1-.39.17-.79.26-1.18a.86.86,0,0,1,.15-.28c.33.45.65.84.94,1.26.62.87,1.2,1.77,1.83,2.63.34.46.76.86,1.13,1.3a2.54,2.54,0,0,1,.35.89h0a8.65,8.65,0,0,0,.89,1.4,2.71,2.71,0,0,1,.55.94c.15.32.28.63.43,1l.8-.18c.06.13.12.25.17.39a3.48,3.48,0,0,0,.64,1.22.87.87,0,0,1,.24.56,2.22,2.22,0,0,0,.72.94,3.79,3.79,0,0,0,2,.59c.56,0,1.12,0,1.68,0a1.45,1.45,0,0,0,.22-1.5A1.29,1.29,0,0,0,110.13,77.58ZM83.56,73.89a3.35,3.35,0,0,0-.36-1.24,3.72,3.72,0,0,1-.23-1c-.12-1.09-.43-2.15-.64-3.22a2.52,2.52,0,0,1,0-1.28,7,7,0,0,0,.19-1,1.12,1.12,0,0,1,.33-.7,1.23,1.23,0,0,1,.15.24,5.12,5.12,0,0,0,.19.67,12.07,12.07,0,0,1,.58,3.57,1.64,1.64,0,0,1-.12.76,1.58,1.58,0,0,0-.06,1.11,11.4,11.4,0,0,1,.28,2.44A.33.33,0,0,1,83.56,73.89ZM96.08,96.26c0,.11.11.22.11.33,0,1.24.35,2.47.27,3.72a2.65,2.65,0,0,0,0,.69c.2,1,.15,2,.28,2.94a15.06,15.06,0,0,0,.44,1.85,5.66,5.66,0,0,0,.32.9.67.67,0,0,1-.21.82,3.63,3.63,0,0,1-.54-.15,4.79,4.79,0,0,0-1.79-.31c-.57,0-1.15,0-1.73,0,0,0-.06,0-.08,0a5.66,5.66,0,0,1-2.65-.17,4.07,4.07,0,0,0-2,.13c-.69.18-1.39.34-2.11.51a2.31,2.31,0,0,1-.21-1.27c.22-.16.21-.74,0-.84a2.17,2.17,0,0,1-.07-.24,5.06,5.06,0,0,0,0-.78,1.86,1.86,0,0,1,.33-1.32c.2-.35-.26-1.14-.18-1.49a2,2,0,0,0,.14-.5A2.34,2.34,0,0,1,87,99.17a.53.53,0,0,0,.07-.58c-.07-.15.73-1.24.82-1.73a2,2,0,0,1,.39-1,.46.46,0,0,0,.07-.16,10.07,10.07,0,0,1,.71-2,2,2,0,0,0,.06-1,1,1,0,0,1,.23-.88,1.78,1.78,0,0,0,.39-1.13,6.15,6.15,0,0,1,.13-.86,21.68,21.68,0,0,0,.56-2.54,5,5,0,0,1,.75-1.89l.65.28a1,1,0,0,1,.5.57c.32.9.64,1.8,1,2.68.19.46.43.89.66,1.32s.29.56.44.85a24.61,24.61,0,0,1,1.19,3.25C95.65,95,96,95.6,96.08,96.26Z"/><path class="cls-3" d="M28.48,83.65h0Z"/><path class="cls-3" d="M52.45,83.23c-5.77,18.41-12,34-19.59,41.61,1.71-.31,2.3-.52,2.59-.91,6-6.18,12-21.34,18.06-39.59C53.69,84.09,52.5,82.33,52.45,83.23Z"/><path class="cls-3" d="M54.09,78.61Z"/><path class="cls-3" d="M76.23,113.47a2.28,2.28,0,0,1-1.32.33c0-.14-.09-.29-.15-.46h-.69l-1.85-.85c-.11-.36-1.21-.69-1.35-.69a5.43,5.43,0,0,1-.69-1.89.49.49,0,0,1,.13-.38.76.76,0,0,0,.08-.93c-.14-.31-.32-.61-.46-.91-.06-.13.16-1.46.19-2,.11-1.6.13-3.21.2-4.82a11.91,11.91,0,0,1,.08-2.31s0-.06,0-.08c-.36-.47-.07-.88.13-1.28-.17-.38-.17-.38.1-1-.19-.07,0-.81,0-1.3a4.12,4.12,0,0,1-.36-.88,4.91,4.91,0,0,0-.37-.67A26.17,26.17,0,0,1,68.53,91c-.26-.59-.53-1.19-.83-1.77s-1.26-3.19-1.41-3.5c-.3-.63-3.39-6.09-3.39-6.12,0-.3-.27-2.86-.27-2.86-.25-.75-.26-7.2-.26-6.73,0,.72.36-1.06.68-1.7.07-.15.16-.3.23-.45A2,2,0,0,0,63,65.58c-.21-.24-.44-.46-.66-.69s-.37-.37-.57-.54a3.67,3.67,0,0,1-.85-2.47,2.42,2.42,0,0,0-2-2.22l-1.21-.31c-.06,0-.1-.06-.19-.11.22-.5.44-1,.68-1.5a.85.85,0,0,1,.9-.55,1.09,1.09,0,0,0,.36,0c.64-.09.82-.26.74-.88a3.09,3.09,0,0,1,.17-1.39c.15-.48.5-.4,0-1.39a1.16,1.16,0,0,1,0-1c.09-.29-.16-1.54,0-1.92,0-.08,0-.16.07-.24A.68.68,0,0,0,60,49.6a5.7,5.7,0,0,1-.54-.3,1.54,1.54,0,0,1-.43-.41c-.5-1-1.45-1.06-2.43-1.06-.35,0-.71.07-1.06.1a5.7,5.7,0,0,0-3.47,1.69,1.15,1.15,0,0,0-.25.34A3.43,3.43,0,0,1,51,51.13a2.66,2.66,0,0,1-.7.6,2.69,2.69,0,0,0-1.06,1,1.6,1.6,0,0,1-.73.7.79.79,0,0,0-.27.21c-.53.63.18.85-.54,1.2,0,.2.19.26.35.28.11.2-.09.34-.11.53l.17-.07c0,.11,0,.18,0,.21a2.5,2.5,0,0,0-.63.88,5.12,5.12,0,0,1-.64,1.08,1.44,1.44,0,0,0-.2.94c0,.07.15.14.23.22l-.49.49c.16.16.31.3.43.44s.13.37-.05.43c-.48.15-.59,1.21-.71,1.58l.29.3-.48.33c.17.36.56.4.87.58-.1.23.17.3.08.5l.33.07c.28-.3.29.06.58.07.25.21,0,.38,0,.56s.11.39.06.56.26.16.29.4c0,.43-.38.89-.3,1.5.27-.12.08-.57.53-.48a3.3,3.3,0,0,0,.1.76c.09.23-.13.56.18.68s.16.53.42.66a3.91,3.91,0,0,0-.34.68c0,.09.11.21.18.32h0c.36.22.4.63.6,1,.11,0,.25,0,.3-.12a.68.68,0,0,0,.16-.37,2,2,0,0,0-.11-.4c0-.16,0-.16.22-.56a1.46,1.46,0,0,1,.61.88c.09.66.18,1.32.26,2l.54,4.31a3.72,3.72,0,0,0,.14.74,2.16,2.16,0,0,1,0,1.62,6.62,6.62,0,0,1-.76,2.1.47.47,0,0,0,0,.4c.22.48-.48,2.23-.6,2.68-.27,1,.43.15,1,2.09.32,1.08.87,2,1.1,3.08a60.21,60.21,0,0,1,.79,6,3.29,3.29,0,0,1,0,.83,21.85,21.85,0,0,1-.56,3.77,15,15,0,0,0-.41,5.21c.18,1.88.3,3.77.43,5.66a16.81,16.81,0,0,0,.45,2.63,3,3,0,0,0,.72,1.09,2,2,0,0,0-.11,1.37c0,.12,0,.32,0,.39-.34.3-.31.7-.37,1.08a.89.89,0,0,1-.09.24,1.29,1.29,0,0,1-1.18.1c-.42-.18-1.89,1.61-1.52,2.34a3.49,3.49,0,0,0,2.35,1.49,10.16,10.16,0,0,0,2.19.32,13,13,0,0,0,2.34-.18c1.48-.24,2.92-.65,4.36-1,.35-.09.69-.17,1-.23l1.16-.19,2.37-.41A39.59,39.59,0,0,0,71,118.08c.72-.23,1.42-.49,2.11-.78a7.58,7.58,0,0,0,1.48-.82,4.06,4.06,0,0,0,1.44-2.1,7,7,0,0,0,.2-.91Zm-25.6,5.42s-.1.08-.12.07a.63.63,0,0,1-.18-.15c.07,0,.14-.1.15-.09A1.22,1.22,0,0,1,50.63,118.89Zm1.29,1.17-.23,0c0-.06,0-.12.06-.13a.21.21,0,0,1,.15,0S51.91,120,51.92,120.06Zm9.15-53.34a.08.08,0,0,1,0,0,.14.14,0,0,1,0-.06s0,0,0,0A.25.25,0,0,1,61.07,66.72Zm5.55,46.71c-.09.08-.08.27-.09.4,0,.33-.06.67-.06,1a3.9,3.9,0,0,1-.2,1.22,4,4,0,0,1-.53.16,4.58,4.58,0,0,1-.53,0,1.74,1.74,0,0,0-.52.05c-.57.22-1.12.46-1.66.69l-1.54-.41a1.88,1.88,0,0,1-.42-.14,1.35,1.35,0,0,0-1.11-.14,2.69,2.69,0,0,0-1.41-1,.32.32,0,0,1-.16-.09,6,6,0,0,0-.82-.56l-.59-.9c.16-1-.28-1.33-.1-1.44s0-.6-.16-.59a1.19,1.19,0,0,1-.4-.86,1.08,1.08,0,0,0-.08-.73,1,1,0,0,1,0-.81,3.19,3.19,0,0,0,.13-.81c0-1-.08-1.94-.09-2.91s0-1.67,0-2.5a2.65,2.65,0,0,1,.14-1,1.79,1.79,0,0,0,.14-1,2.19,2.19,0,0,1,.51-1.55c.1-.14.21-.26.11-.45s0-.19.13-.26a.47.47,0,0,0,.24-.22A8.49,8.49,0,0,0,58,97.31c.13-.6.17-1.21.25-1.81s.09-.55.18-1.15c.14-.85.31-1.7.43-2.55s.17-1.59.27-2.39a2.78,2.78,0,0,1,.2-.52c.2.2.35.33.47.47,1.16,1.4,2.27,2.83,3.47,4.19.85,1,1.63,1.33,2.28,2.4A2.78,2.78,0,0,1,66,97.7c-.09.86-.12,1.72-.19,2.57a12.78,12.78,0,0,0,.23,3.65,10.49,10.49,0,0,1,.15,1.24c.08,1.08.15,2.16.23,3.24a2.42,2.42,0,0,0,0,.25c0,.44.11.88.15,1.32a4.85,4.85,0,0,0,.3,1.88.36.36,0,0,1,0,.25C66.8,112.53,67,113.05,66.62,113.43Zm7.43-.06a.83.83,0,0,1-.08.12l-.06,0-.07,0a.31.31,0,0,1,.08-.11A.3.3,0,0,1,74.05,113.37Z"/><path class="cls-3" d="M59.12,59.73a2.52,2.52,0,0,1,1.25.59c.29.36.58.71.85,1.08.41.56.72,1.79,1.11,2.36L63.19,65c.27.39.53.8.83,1.18a33.39,33.39,0,0,0,2.8,3.14,3.57,3.57,0,0,1,.34.43c.72,1,1.42,1.92,2.23,2.8a6,6,0,0,1,.39.49A6.73,6.73,0,0,0,71,74.45a2.12,2.12,0,0,1,.45.4c.18.29.24.07.44.35s.38.25.56.46a2.7,2.7,0,0,0,1.29.88,3.48,3.48,0,0,1,.63.26,1.75,1.75,0,0,1,.51.34,1.83,1.83,0,0,0,.72.51,1,1,0,0,1,.5.45,1.15,1.15,0,0,1,.14,1.19c-.43.11-.86.24-1.29.33a3,3,0,0,1-1.69,0,1.67,1.67,0,0,1-.74-.57.73.73,0,0,0-.3-.38,2.76,2.76,0,0,1-.75-.81c-.06-.09-.13-.17-.2-.26-.2.1-1,.51-1.18.3a2,2,0,0,0-.62-.61,7,7,0,0,1-1-.89h0a2,2,0,0,0-.45-.61c-.37-.26-.78-.48-1.13-.76-.66-.53-1.29-1.1-1.94-1.64-.31-.26-3-2.07-3.1-2.09"/><path class="cls-3" d="M51.59,60.56,52.15,66l-1.06,4-1.28,4.87,3,4.65L52,82.22c-.07-.08-.14-.4-.2-.49-.3-.45-1.63-.55-2.08-.92a.85.85,0,0,1-.17-.25l-1.71-2.82a6.55,6.55,0,0,1-.32-.58A2.61,2.61,0,0,0,47,76.3a1.69,1.69,0,0,1-.52-1.53c0-.12,0-.24.07-.35a22.43,22.43,0,0,0,.36-2.7,14,14,0,0,1,.28-2.23c.07-.28.16-.57.21-.86A32.3,32.3,0,0,0,48,65.14c0-.79-.2,0,.47-.49.5-.4,1-.82,1.47-1.23a3.21,3.21,0,0,1,.3-.21A7.28,7.28,0,0,0,51.58,61Z"/><path class="cls-3" d="M127.1,78.61c-8.95-.08-46.4-.64-51.67-1.44-6.92.09-13.23,3.42-23.53,1.89l-.38,1.67c10.35,1.48,17-2.35,23.11-2.4,5.79.73,42.81,1.39,51.8,1.3Z"/><path class="cls-3" d="M210.81,135.3s-2.82,27.29-3.11,30.4c-1,11.15,3.47,17,4.67,17.3s-1.36-.48-1.36-.48-5.38-3.69-4.83-15.61c.06-1.27,3.12-31.43,3.12-31.43"/><path class="cls-3" d="M108.24,108.4a4.06,4.06,0,0,1,.94-1c.07,0,.53-.43.52-.44a2.11,2.11,0,0,0,.37-.53,1.3,1.3,0,0,0,.11-.37s.21-1.18.3-1.72,1.1-1.5,1.07-1.64c0,0,.9-2.53,1.39-3.78a11.31,11.31,0,0,1,1-1.71c.27-.45.54-.9.83-1.33.09-.12,1.64-1.83,1.64-1.83.2,0,.77-1.29,1.37-1.66.24-.14.36-.43.54-.64l1-1.09a11.44,11.44,0,0,0,.87-1.25c.39-1.12.71-2.07,1-3,0,0,.08-.58.06-.74l1.25-2.93-.08,0,.24-.65.53.1c1.18.21,2.34.47,3.5.76s2.33.64,3.47,1,2.21.78,3.27,1.25c.75.33,1.48.68,2.18,1.07l-1.82-.19a14.14,14.14,0,0,0-2.63,1.05l-1.62.95a1.82,1.82,0,0,0-.38.29c-.51.51-1,1-1.52,1.54l0,0c-.6.76-1.17,1.55-1.82,2.28a25.39,25.39,0,0,1-2.63,2.66,13.64,13.64,0,0,0-2.61,2.71,22.38,22.38,0,0,1-2.21,3,38.88,38.88,0,0,0-2.58,3.74c-.16.21-.15.51-.27.75-.36.79-.74,1.57-1.14,2.39l-.68-.08a7.15,7.15,0,0,0,0,1.85c0,.12,0,.24,0,.35a.29.29,0,0,0,0,.16,5.15,5.15,0,0,0,.12,1,5.35,5.35,0,0,1,.32,1.88,1.55,1.55,0,0,1,0,.23,6.81,6.81,0,0,1-.36.58,2.32,2.32,0,0,1-.62.39,6.15,6.15,0,0,1-.76-.06l-1.76-.29-.23,0s-.27-.29-.33-.25a6,6,0,0,1-1-1.16,6.43,6.43,0,0,1-.75-1.42,3.92,3.92,0,0,1-.28-1.34c0-.09,0-.33,0-.34A4.33,4.33,0,0,0,108.24,108.4Z"/><path class="cls-3" d="M143.62,93.74l-.07.62A17.85,17.85,0,0,0,143,96.8c-.27,1.73-.47,3.48-.72,5.23-.07.49-.26,1-.3,1.46-.08,1-.09,2-.12,3a7.33,7.33,0,0,1,0,1c-.08.49-.24,1-.36,1.46h0a3.18,3.18,0,0,0,.09,1.62,2.31,2.31,0,0,0,.55.85l0,0a7.42,7.42,0,0,1,.89.69l.21.11.79.34c.68.09,1.35.17,2,.28a1.78,1.78,0,0,1,.62.26c.26.15.5.33.76.49a21.44,21.44,0,0,0,4.22-.32l0,0,.5-.09a2.1,2.1,0,0,0,.26-1,2,2,0,0,0,0-.24,6.31,6.31,0,0,0-.78-.39l-.51-.22c0,.06-.17,0-.22-.1a7.76,7.76,0,0,1-1-.47l-.09-.06-1.73-.62.16-.23c-.46-.47-1.38-.35-1.56-1.19l.07,0-.25-.21a.27.27,0,0,1-.14,0l.07,0a2.68,2.68,0,0,1-.28-.3,3.28,3.28,0,0,1-.34.31v-.84a1.94,1.94,0,0,0,.34-.53,21.79,21.79,0,0,1,1.33-4.77,30.18,30.18,0,0,1,.81-3.25,23.33,23.33,0,0,1,.94-3.54,14.47,14.47,0,0,0,.73-3.21c.25-1.39-.17-2-1.47-2.59a12.73,12.73,0,0,1-1.56-1c-.38-.25-.78-.48-1.25-.76A26.56,26.56,0,0,1,143,86.26l-.93-.61c.15-.15-3.11-1-.92-4.57a16.52,16.52,0,0,0,1.51-2.59c.58-1.07,1.13-2.09,1.7-3.1a2,2,0,0,1,.49-.59c-2.57,2,.92-6.22.8-2.18,0-1,.72-1.73.76-2.67a13,13,0,0,0-.26-1.94,1.85,1.85,0,0,1,.64-.25c.27,0,.75,0,1.8,0l.5,0-1-1.4c.32-.1-.3,0,0-.08.61-.45.13-.82,0-1.26-.17-.6-1-.69-1.35-1,.36-.62.29-.8.95-.6a2.76,2.76,0,0,0,1.27.12,1.1,1.1,0,0,0,.74-.65,7.66,7.66,0,0,1,.7-1.51,2.74,2.74,0,0,0,.62-.07,12.08,12.08,0,0,0,.28-1.65c.06,0,.4-1.07.63-1.17.79-.35-.07-4.07-.91-4.39,0,0-4.4-3.12-6.87-.83a3.17,3.17,0,0,0-1.29,2.67c-.08.45-.64,2.67-.41,3.4-.13.05-.77-.28-.92-.35s-.83,1.54-.65,1.6l-.21.4c-.59-.17-1.18-.35-1.78-.51a1.31,1.31,0,0,0-.39,0h0l-.93,0s-2.3.42-2.3.45l.13,0-1.51.64a.76.76,0,0,0-.25.18,10.65,10.65,0,0,0-.94,1c-.33.4-.58.87-.91,1.27-.54.67-1.12,1.3-1.68,2-.33.39-.64.81-1.07,1.35a5.72,5.72,0,0,0-1.82,2.59c-.56,1.21.06,2.21.42,3.27a12.21,12.21,0,0,0-.56,1.51,1.46,1.46,0,0,1-.15.46,5.63,5.63,0,0,1-.37.62,27.46,27.46,0,0,0-2.26,2.26c-.28.38-.61.73-.91,1.09s-1,.71-1,1.24.88,1.53.8,1.64-1.06,1.52-1.05,1.53c-.1,1,.11,2.79-.16,3.2,0,0,2.18-1.39,2.21-1.37,1,.5-.67-2.34.33-1.76s2,1.23,3,1.9-.52.45.36,1.2,0,.93.65,1.7C131.58,89.48,141.47,93.08,143.62,93.74Zm7.51,18.47.08,0,.14.31-.08,0Zm-4.19,1,0-.07.37.19,0,.09Zm-4.46-2,0,0,.13.11,0,0Zm1.53-8.12,0,0,.1.13,0,0Z"/><path class="cls-3" d="M223.33,130.88a.75.75,0,0,0-.24-.41c-.41-.34-.13-1.19-.15-1.28-.11-.53-.23-1.07-.35-1.6-.38.06-.5.23-.46.52a8.72,8.72,0,0,0,.26,2.28c.05.12-.38,2.84-.57,4.05a32.61,32.61,0,0,0,1,3.57c.23.66-.49,1.19-.59.86-.3-1-1-3.06-1.06-3.11a.88.88,0,0,0-.27,1,4.88,4.88,0,0,1,.14,1.21c0,.25-.07.51-.41.55-.13-.35.33-.68-.12-1a3.38,3.38,0,0,1-1.66,1.53,9.63,9.63,0,0,1-2.18.92,10.73,10.73,0,0,1-2.33,0c0,.08-.42-.13-.83,0a6.09,6.09,0,0,1-.61-1,7.8,7.8,0,0,1-.55-1.3,8.82,8.82,0,0,1-.31-1.69,9.09,9.09,0,0,0-.53-2.93A9.56,9.56,0,0,0,210,131a4.53,4.53,0,0,1-1.28-2.58,13.64,13.64,0,0,1,0-1.43c0-.6,0-1.21,0-1.82,0-1.17-.23-2.35-.27-3.52a10.77,10.77,0,0,1,.33-3.25,5.59,5.59,0,0,1,1.56-2.65,16.18,16.18,0,0,1,2.17-1.6c.44-.06,2-.3,2.43-.39a1.47,1.47,0,0,1,1.86.78c.18.35.35.35.7.12.69-.46,1.15-.28,1.37.5a3.19,3.19,0,0,0,.83,1.58c.33.28.28.6.15,1a1.64,1.64,0,0,0,.64,2c.08.06.17.11.24.17a1.16,1.16,0,0,1,.18,1.85,10.71,10.71,0,0,0,1.24,1.75c.49.08.65.35.77.8a12.19,12.19,0,0,1,0,1.34,23.1,23.1,0,0,0,.69,2.48,17.85,17.85,0,0,1,.61,3.06C224.21,131.32,223.45,131.32,223.33,130.88Z"/></g><path class="cls-3" d="M233.82,80.18c-2.07,1-4.24,1.76-6.31,2.75a112.31,112.31,0,1,1-11.24-22,40.72,40.72,0,0,1,4.1-2.81c.54-.33,1.1-.63,1.68-.92a118.42,118.42,0,1,0,11.77,22.94Z"/><path class="cls-3" d="M234.3,69.53a8.35,8.35,0,0,1-8.45,8.71A8,8,0,0,1,217.4,70a8.33,8.33,0,0,1,8.38-8.7A8.1,8.1,0,0,1,234.3,69.53Zm-13.66.3c0,3.24,2.14,5.64,5.19,5.61,3.24,0,5.32-2.39,5.29-5.76,0-2.67-1.76-5.7-5.38-5.67C222.37,64,220.61,66.65,220.64,69.83Z"/><path class="cls-4" d="M52.38,172.47,49,171.63l-.36-23,3.42.85c0,1.95-.08,4.5-.11,7.65s-.06,5.67-.09,7.56-.09,3.22-.17,4h0q.76-1.56,4.45-8.18T61,151.7l3.08.77q.24,16.47.07,19.16h0q.75-1.69,2.43-4.8t4-7.13c1.52-2.68,2.44-4.31,2.76-4.92l3.14.79-11.6,20-3.39-.85q0-1.62-.08-6.12t-.09-7.78c0-2.18,0-3.7,0-4.57h0c-.34.73-.92,1.85-1.73,3.36s-1.57,2.88-2.26,4.11l-2.78,4.88Z"/><path class="cls-4" d="M87,169.48l-1.85,7.39a20.12,20.12,0,0,0-.67,3.62l-2.89-.72a10,10,0,0,1,.21-2q-1.8,2-5.37,1.13a5.4,5.4,0,0,1-3.63-2.42,5,5,0,0,1-.5-3.76,4.51,4.51,0,0,1,2.92-3.41,10.26,10.26,0,0,1,5.86.1l2.61.65.32-1.28q.72-2.91-2.47-3.71a3.34,3.34,0,0,0-2.49,0,3.68,3.68,0,0,0-1.32,1.57l-2.95-.74a5.32,5.32,0,0,1,2.5-3c1.2-.67,2.85-.73,4.93-.19Q88.31,164.26,87,169.48Zm-3.92,3.11.13-.5-2.42-.6q-4.6-1.16-5.34,1.8a2.68,2.68,0,0,0,.29,2.15,3.05,3.05,0,0,0,2,1.28,5.28,5.28,0,0,0,2.26.14,2.76,2.76,0,0,0,1.55-.87,5.59,5.59,0,0,0,.94-1.46A12.31,12.31,0,0,0,83.09,172.59Z"/><path class="cls-4" d="M88.83,181.58l3-11.83c.46-1.85.78-3.17,1-4l3,.75a19.54,19.54,0,0,1-.5,2.51,5,5,0,0,1,5.59-1.63,5.17,5.17,0,0,1,3.46,2.47,6.5,6.5,0,0,1,.32,4.87l-2.54,10.15-3-.76,2.44-9.78q1-3.83-2.24-4.62-3.91-1-5.2,4.18l-2.11,8.45Z"/><path class="cls-4" d="M122.62,165.83l3,.76-4.58,18.33c-.48,1.94-.84,3.43-1.08,4.45l-3-.74a17.36,17.36,0,0,1,.41-2.17c-1.24,1.47-3.08,1.9-5.5,1.29a6,6,0,0,1-4.24-3.43,9.43,9.43,0,0,1-.32-6.32,9.58,9.58,0,0,1,3.45-5.6,6.51,6.51,0,0,1,5.77-1.07q3.39.85,3.87,3Zm-12,12.87a7,7,0,0,0,.1,4.45,3.66,3.66,0,0,0,2.59,2.23,4.89,4.89,0,0,0,2.29.09,3.14,3.14,0,0,0,1.64-1,6.7,6.7,0,0,0,1.09-1.69,15.87,15.87,0,0,0,.75-2.27,8.49,8.49,0,0,0,.2-4.38c-.33-1-1.3-1.77-2.89-2.17a3.86,3.86,0,0,0-3.57.73A7.31,7.31,0,0,0,110.6,178.7Z"/><path class="cls-4" d="M139.3,186.39l-11-2.74a6.36,6.36,0,0,0,.19,4,3.63,3.63,0,0,0,2.62,2.19,4,4,0,0,0,2.53,0,4.1,4.1,0,0,0,1.64-1.37l3.08.77a9,9,0,0,1-1.12,1.45,7.32,7.32,0,0,1-1.58,1.22,5.37,5.37,0,0,1-2.32.71,8.49,8.49,0,0,1-3-.26,6.42,6.42,0,0,1-4.71-3.68,9.53,9.53,0,0,1-.35-6.19,9.73,9.73,0,0,1,3.4-5.62,6.67,6.67,0,0,1,6-1,7.33,7.33,0,0,1,3,1.49,5.46,5.46,0,0,1,1.71,2.34,8.22,8.22,0,0,1,.52,2.67,11.66,11.66,0,0,1-.69,4Zm-10.38-4.8,7.88,2a5.25,5.25,0,0,0-.2-3.43,3.44,3.44,0,0,0-2.51-1.93Q130.45,177.29,128.92,181.59Z"/><path class="cls-4" d="M140.91,194.59l2.88-11.53q.3-1.17.63-2.58c.22-.93.36-1.5.41-1.71l3,.75q-.08.67-.69,3.15a5.56,5.56,0,0,1,2.62-2,6,6,0,0,1,3.54-.16l-.76,3q-5.29-1.23-6.69,4.33L144,195.35Z"/><path class="cls-4" d="M166.66,193.23l-11-2.75a6.36,6.36,0,0,0,.19,4,3.59,3.59,0,0,0,2.62,2.19,3.83,3.83,0,0,0,2.53,0,4,4,0,0,0,1.64-1.37l3.08.77a8.59,8.59,0,0,1-1.12,1.45,7.59,7.59,0,0,1-1.58,1.23,5.51,5.51,0,0,1-2.32.7,8.57,8.57,0,0,1-3-.26,6.4,6.4,0,0,1-4.7-3.68,9.53,9.53,0,0,1-.35-6.19,9.76,9.76,0,0,1,3.4-5.62,6.65,6.65,0,0,1,6-1,7.31,7.31,0,0,1,3.06,1.49,5.58,5.58,0,0,1,1.71,2.34,8.22,8.22,0,0,1,.52,2.67,9.71,9.71,0,0,1-.31,2.76A10.48,10.48,0,0,1,166.66,193.23Zm-10.39-4.81,7.89,2A5.25,5.25,0,0,0,164,187a3.47,3.47,0,0,0-2.52-1.93Q157.81,184.13,156.27,188.42Z"/><path class="cls-4" d="M168.27,201.42l2.88-11.52c.2-.79.4-1.65.63-2.59s.36-1.5.41-1.71l3,.75c0,.45-.28,1.5-.69,3.16a5.58,5.58,0,0,1,2.62-2,6,6,0,0,1,3.54-.15l-.76,3q-5.3-1.23-6.69,4.33l-1.88,7.52Z"/><path class="cls-4" d="M106.49,135.18l-2.94,11.74-2.42-.6a13.41,13.41,0,0,1,.38-2.84c-1.81,1.72-4.27,2.2-7.38,1.42a8.94,8.94,0,0,1-6.29-4.8,12.24,12.24,0,0,1-.56-8.46,12.61,12.61,0,0,1,4.71-7.5,9.54,9.54,0,0,1,8.28-1.3,9.89,9.89,0,0,1,5.61,3.35,7.54,7.54,0,0,1,1.62,5.49l-3.2-.8c-.17-2.86-1.75-4.66-4.76-5.41a5.92,5.92,0,0,0-5.69,1.12,11,11,0,0,0-3.18,5.73,12.51,12.51,0,0,0-.37,4.27,6.89,6.89,0,0,0,1.43,3.59,6.16,6.16,0,0,0,3.5,2.16q5.77,1.44,7.38-5l.06-.22-5.81-1.45.68-2.73Z"/><path class="cls-4" d="M108.06,148.05l2.87-11.52c.2-.79.41-1.65.63-2.59s.36-1.5.41-1.71l3,.75a32.1,32.1,0,0,1-.7,3.16,5.56,5.56,0,0,1,2.63-2,6,6,0,0,1,3.53-.15l-.75,3q-5.31-1.23-6.69,4.33l-1.88,7.52Z"/><path class="cls-4" d="M133.47,142.75l-1.85,7.39a20.12,20.12,0,0,0-.67,3.62l-2.89-.72a10,10,0,0,1,.21-2q-1.8,2-5.37,1.13a5.38,5.38,0,0,1-3.63-2.43,5,5,0,0,1-.5-3.75,4.5,4.5,0,0,1,2.91-3.41,10.37,10.37,0,0,1,5.87.09l2.61.66.32-1.28q.72-2.91-2.47-3.72a3.37,3.37,0,0,0-2.49.06,3.68,3.68,0,0,0-1.32,1.57l-3-.74a5.32,5.32,0,0,1,2.5-3c1.2-.67,2.85-.73,4.93-.19Q134.77,137.53,133.47,142.75Zm-3.92,3.11.13-.5-2.42-.6q-4.61-1.15-5.34,1.8a2.68,2.68,0,0,0,.29,2.15,3.05,3.05,0,0,0,2,1.28,5.28,5.28,0,0,0,2.26.14,2.76,2.76,0,0,0,1.55-.87,5.59,5.59,0,0,0,.94-1.46A12.31,12.31,0,0,0,129.55,145.86Z"/><path class="cls-4" d="M151.35,134.68l3,.76-4.57,18.32c-.49,1.94-.85,3.43-1.08,4.45l-3-.74a16,16,0,0,1,.41-2.17q-1.87,2.2-5.5,1.29a6,6,0,0,1-4.24-3.43,9.35,9.35,0,0,1-.32-6.31,9.61,9.61,0,0,1,3.44-5.61,6.57,6.57,0,0,1,5.78-1.07q3.38.86,3.86,3Zm-12,12.86a6.91,6.91,0,0,0,.09,4.45,3.68,3.68,0,0,0,2.6,2.23,4.72,4.72,0,0,0,2.28.09,3,3,0,0,0,1.65-1,6.24,6.24,0,0,0,1.08-1.69,13.71,13.71,0,0,0,.75-2.27A8.24,8.24,0,0,0,148,145c-.33-1.05-1.29-1.78-2.88-2.18a3.89,3.89,0,0,0-3.57.73A7.28,7.28,0,0,0,139.33,147.54Z"/><path class="cls-6" d="M761.19,152.34c4-.94,3.27-5.63,3.27-6.32V132.56c.13-4.7-.46-6.67-5.61-6.79H756v26.8h2.7A20.33,20.33,0,0,0,761.19,152.34Zm.24-38c2.92-.82,3-3.26,3-5.72v-11a11.49,11.49,0,0,0-.34-2.93c-1-2.92-4.56-2.57-5-2.57H756v22.46h3.05C760.38,114.42,760.5,114.42,761.43,114.3Zm-46.53,8.19a103,103,0,0,0,103,103V151.84c-1.19,5.27-4.61,13.23-16.94,13.12-2.21,0-10.16-.12-14.62-6.55-3.39-5-3.49-11.46-3.62-23.52v-24a118.8,118.8,0,0,1,.71-15.66c.7-5,3.27-15.2,17.2-15.2,10,0,13.91,4.79,15.79,8.87a22.11,22.11,0,0,1,1.48,4.47V19.49A103,103,0,0,0,714.9,122.49Zm58.7-37.66c4.45,3.74,4.45,8.89,4.56,14.15v4.44c-.11,6.69-.59,9.48-2.57,12.3a10.82,10.82,0,0,1-5.15,3.73c3,1.3,4.32,2.22,5.39,3.63,2.22,2.92,2.56,7.14,2.68,14.62v5.39c0,5.62,0,11.92-4.09,16.37s-10.07,4.44-15.57,4.44H742.36V81.32h18C765.18,81.32,769.73,81.55,773.6,84.83ZM817.9,3.62A118.88,118.88,0,1,0,936.78,122.49,119,119,0,0,0,817.9,3.62Zm0,230.89a112,112,0,1,1,112-112A112.16,112.16,0,0,1,817.9,234.51Zm-17-80.66c4.57,0,4.09-5.5,4.09-6V97a10.76,10.76,0,0,0-.1-1.86c-.13-1.07-.47-4.46-4.21-4.46-4.44,0-4,6.09-4,6.19V148C796.64,148.71,796.28,153.85,800.85,153.85Zm60.82-72.53H848.58l-10.42,36v-36H824.6V163.9h13.56V124.49l11.35,39.41h14l-12.87-43.38Zm25.4,0v67c0,.72.22,5.5-4.22,5.5s-4.09-5.72-4.09-6V81.32H865.07v60.37c.12,8.76.59,12.63,3,16.49,3.4,5.15,9.26,6.78,15.09,6.78,8.9.12,13.1-4.22,15-7.6,2.45-4.09,2.45-9,2.56-13.58V81.32Z"/></svg>