<svg xmlns="http://www.w3.org/2000/svg" xmlns:xlink="http://www.w3.org/1999/xlink" id="Layer_1" x="0px" y="0px" width="879.8px" height="308.3px" viewBox="0 0 879.8 308.3" style="enable-background:new 0 0 879.8 308.3;" xml:space="preserve">
<style type="text/css">
	.st0{fill:#020203;}
	.st1{fill:#E63515;}
</style>
<g>
	<g>
		<path class="st0" d="M844.5,266.6c0.1-2.9,2.5-9.3,9.8-9.3c6.9,0,9.4,6.3,9.6,9.3H844.5z M854.2,254.4c-7.8,0-12.9,6.3-12.9,13.7    c0,7.4,5.6,13.7,13.4,13.7c4.3,0,8.4-2.3,10.9-5.3l-2-2.1c-1.8,2.2-4.9,4.5-8.9,4.5c-6.9,0-10.2-5.7-10.4-9.6h22.5    c0-0.6,0-0.7,0-1.2C866.9,260.2,861.2,254.4,854.2,254.4 M827.3,246.6c0,1.3,1,2.3,2.3,2.3c1.3,0,2.3-1,2.3-2.3s-1-2.3-2.3-2.3    C828.4,244.4,827.3,245.4,827.3,246.6 M828.2,281.2h3v-26.1h-3V281.2z M812.7,272.9c0,0-2.7,6.1-9.4,6.1c-5.8,0-9.8-4.7-9.8-10.8    c0-6.1,4-10.8,9.8-10.8c6.7,0,9.4,6.1,9.4,6.1V272.9z M813,255.1v4.8c0,0-2.9-5.5-9.7-5.5c-7.2,0-12.9,5.6-12.9,13.7    c0,8.1,5.7,13.7,12.9,13.7c5.8,0,8.6-3.8,9.4-5v5.1c0,5.8-3.1,10.2-9.8,10.2c-6.6,0-10-4.5-10-4.5l-2,2.1c0,0,4.3,5.3,12,5.3    c7.6,0,12.8-5,12.8-13.2v-26.7L813,255.1L813,255.1z M769.8,279c-6.5,0-10.2-4.9-10.2-10.8c0-5.9,3.7-10.8,10.2-10.8    s10.2,4.9,10.2,10.8C780,274.1,776.3,279,769.8,279 M769.8,254.4c-7.8,0-13.3,6.2-13.3,13.7c0,7.6,5.5,13.7,13.3,13.7    s13.3-6.2,13.3-13.7C783.1,260.6,777.6,254.4,769.8,254.4 M743.1,281.2h3V238h-2.9L743.1,281.2z M719.5,279    c-6.5,0-10.2-4.9-10.2-10.8c0-5.9,3.7-10.8,10.2-10.8c6.5,0,10.2,4.9,10.2,10.8C729.6,274.1,726,279,719.5,279 M719.5,254.4    c-7.8,0-13.3,6.2-13.3,13.7c0,7.6,5.5,13.7,13.3,13.7c7.8,0,13.3-6.2,13.3-13.7C732.7,260.6,727.2,254.4,719.5,254.4 M686.9,254.4    c-6.4,0-8.9,5.4-8.9,5.4v-4.7h-2.7v26.1h3v-18c0,0,2.3-5.8,8.1-5.8c4.2,0,7.4,2.3,7.4,7.7v16.2h3v-16.6    C696.7,257.5,691.8,254.4,686.9,254.4 M645.1,259.4V238h-3v43.2h3v-18c0,0,2.3-5.8,8.1-5.8c4.2,0,7.4,2.3,7.4,7.7v16.2h3v-16.6    c0-7.1-4.9-10.1-9.8-10.1C647.7,254.4,645.1,259.4,645.1,259.4 M621.6,279c-6.2,0-10.3-5-10.3-10.8c0-5.8,4.1-10.8,10.3-10.8    c5.5,0,8.3,3.9,8.3,3.9l2.1-1.9c0,0-3.6-4.9-10.4-4.9c-7.8,0-13.4,6.2-13.4,13.7c0,7.6,5.7,13.7,13.4,13.7    c7.1,0,10.7-5.3,10.7-5.3l-2.1-2C630.3,274.6,627.4,279,621.6,279 M578.5,266.6c0.1-2.9,2.5-9.3,9.8-9.3c6.9,0,9.4,6.3,9.6,9.3    H578.5z M588.3,254.4c-7.8,0-12.9,6.3-12.9,13.7c0,7.4,5.6,13.7,13.4,13.7c4.3,0,8.4-2.3,10.9-5.3l-2-2.1    c-1.8,2.2-4.9,4.5-8.9,4.5c-6.9,0-10.2-5.7-10.4-9.6h22.5c0-0.6,0-0.7,0-1.2C600.9,260.2,595.2,254.4,588.3,254.4 M558,281.2h3    v-37.3H573v-2.7h-27.1v2.7H558L558,281.2L558,281.2z M514.8,272.9c0,0-2.9,6.1-9.4,6.1c-5.8,0-9.9-4.7-9.9-10.8    c0-6.1,4.1-10.8,9.9-10.8c6.6,0,9.4,6.1,9.4,6.1V272.9z M517.8,281.2V238h-2.9v21.6c-0.7-1-3.7-5.1-9.4-5.1c-7.3,0-13,5.6-13,13.7    s5.7,13.7,13,13.7c6.6,0,9.7-5.5,9.7-5.5v4.8L517.8,281.2L517.8,281.2z M473.1,254.4c-6.4,0-8.9,5.4-8.9,5.4v-4.7h-2.7v26.1h3v-18    c0,0,2.3-5.8,8.1-5.8c4.2,0,7.4,2.3,7.4,7.7v16.2h3v-16.6C482.9,257.5,478,254.4,473.1,254.4 M438.2,281.9c6.4,0,8.9-5.3,8.9-5.3    v4.6h2.7v-26.1h-3v18.1c0,0-2.3,5.7-8.1,5.7c-4.3,0-7.4-2.3-7.4-7.7v-16.2h-3v16.6C428.4,278.9,433.2,281.9,438.2,281.9     M388.3,254.4c-6.4,0-8.9,5.4-8.9,5.4v-4.7h-2.7v26.1h3v-18c0,0,2.3-5.8,8.1-5.8c4.2,0,7.4,2.3,7.4,7.7v16.2h3v-16.6    C398.1,257.5,393.2,254.4,388.3,254.4 M353.9,279c-6.5,0-10.2-4.9-10.2-10.8c0-5.9,3.7-10.8,10.2-10.8c6.5,0,10.2,4.9,10.2,10.8    C364.1,274.1,360.4,279,353.9,279 M353.9,254.4c-7.8,0-13.3,6.2-13.3,13.7c0,7.6,5.5,13.7,13.3,13.7c7.8,0,13.3-6.2,13.3-13.7    C367.2,260.6,361.7,254.4,353.9,254.4 M326.6,246.6c0,1.3,1,2.3,2.3,2.3c1.3,0,2.3-1,2.3-2.3s-1-2.3-2.3-2.3    C327.7,244.4,326.6,245.4,326.6,246.6 M327.4,281.2h3v-26.1h-3V281.2z M299.1,257.9h5.7v16.3c0,4.3,2.3,7.7,7.4,7.7    c2.6,0,5.1-1.5,5.1-1.5l-1.1-2.6c0,0-1.8,1.2-3.9,1.2c-3.6,0-4.6-2.5-4.6-5.4v-15.7h8.9v-2.7h-8.9v-8.4h-3v8.4h-5.7V257.9z     M278,279c-3.4,0-7.1-1.8-7.1-5.9s4.2-6,7.7-6c5.2,0,8.3,2.2,8.3,2.2v4.4C286.9,273.7,283.8,279,278,279 M279.2,254.4    c-5.5,0-9.8,2.7-9.8,2.7l1.3,2.6c0,0,3.8-2.4,8.5-2.4c2.9,0,7.7,1.1,7.7,7.4v2c0,0-3.4-2.5-8.7-2.5c-5.1,0-10.3,3.1-10.3,8.8    c0,5.8,5.1,8.8,9.5,8.8c6.4,0,9.8-5.2,9.8-5.2v4.5h2.7v-17.1C289.9,258.8,286.5,254.4,279.2,254.4 M235.2,255.1l13,27.2l13-27.2    h-3.1l-9.9,21l-9.9-21H235.2z M217.1,279c-6.5,0-10.2-4.9-10.2-10.8c0-5.9,3.7-10.8,10.2-10.8s10.2,4.9,10.2,10.8    C227.2,274.1,223.6,279,217.1,279 M217.1,254.4c-7.8,0-13.3,6.2-13.3,13.7c0,7.6,5.5,13.7,13.3,13.7s13.3-6.2,13.3-13.7    C230.3,260.6,224.8,254.4,217.1,254.4 M184.5,254.4c-6.4,0-8.9,5.4-8.9,5.4v-4.7h-2.7v26.1h3v-18c0,0,2.3-5.8,8.1-5.8    c4.2,0,7.4,2.3,7.4,7.7v16.2h3v-16.6C194.3,257.5,189.4,254.4,184.5,254.4 M151.4,254.4c-6.4,0-8.9,5.4-8.9,5.4v-4.7h-2.7v26.1h3    v-18c0,0,2.3-5.8,8.1-5.8c4.2,0,7.4,2.3,7.4,7.7v16.2h3v-16.6C161.2,257.5,156.3,254.4,151.4,254.4 M123.4,281.2h3v-40h-3V281.2z"></path>
		<path class="st0" d="M610.2,218.1l2.6,0.9l4.9-13.4l-2.7-1L610.2,218.1z M585,186.4h5.7v16.3c0,4.3,2.3,7.7,7.4,7.7    c2.6,0,5.1-1.5,5.1-1.5l-1.1-2.6c0,0-1.8,1.2-3.9,1.2c-3.6,0-4.6-2.5-4.6-5.4v-15.7h8.9v-2.7h-8.9v-8.4h-3v8.4H585L585,186.4    L585,186.4z M568.8,175.1c0,1.3,1,2.3,2.3,2.3c1.3,0,2.3-1,2.3-2.3s-1-2.3-2.3-2.3S568.8,173.9,568.8,175.1 M558.4,175.1    c0,1.3,1,2.3,2.3,2.3c1.3,0,2.3-1,2.3-2.3s-1-2.3-2.3-2.3C559.4,172.8,558.4,173.9,558.4,175.1 M563.9,207.5    c-3.4,0-7.1-1.8-7.1-5.9s4.2-6,7.7-6c5.2,0,8.3,2.2,8.3,2.2v4.4C572.8,202.2,569.6,207.5,563.9,207.5 M565,182.9    c-5.5,0-9.8,2.7-9.8,2.7l1.3,2.6c0,0,3.8-2.4,8.5-2.4c2.9,0,7.7,1.1,7.7,7.4v2c0,0-3.4-2.5-8.7-2.5c-5.1,0-10.3,3.1-10.3,8.8    c0,5.8,5.1,8.8,9.5,8.8c6.4,0,9.8-5.2,9.8-5.2v4.5h2.7v-17.1C575.7,187.3,572.3,182.9,565,182.9 M527.6,186.4h5.7v16.3    c0,4.3,2.3,7.7,7.4,7.7c2.6,0,5.1-1.5,5.1-1.5l-1.1-2.6c0,0-1.8,1.2-3.9,1.2c-3.6,0-4.6-2.5-4.6-5.4v-15.7h8.9v-2.7h-8.9v-8.4h-3    v8.4h-5.7V186.4z M513.8,175.1c0,1.3,1,2.3,2.3,2.3c1.3,0,2.3-1,2.3-2.3s-1-2.3-2.3-2.3C514.9,172.8,513.8,173.9,513.8,175.1     M514.6,209.7h3v-26.1h-3V209.7z M498.3,209.7h3v-43.2h-2.9L498.3,209.7z M481.1,175.1c0,1.3,1,2.3,2.3,2.3s2.3-1,2.3-2.3    s-1-2.3-2.3-2.3S481.1,173.9,481.1,175.1 M481.9,209.7h3v-26.1h-3V209.7z M449.3,191.4c0,0,2.6-5.6,9.4-5.6    c5.8,0,9.9,4.7,9.9,10.8c0,6.1-4.1,10.8-9.9,10.8c-6.7,0-9.4-5.6-9.4-5.6V191.4z M449,209.7v-4.4c0,0,2.8,5.1,9.7,5.1    c7.3,0,13-5.6,13-13.7c0-8.1-5.7-13.7-13-13.7c-6,0-8.7,3.8-9.4,4.8v-21.3h-2.9v43.2C446.4,209.7,449,209.7,449,209.7z     M422.5,207.5c-6.5,0-10.2-4.9-10.2-10.8c0-5.9,3.7-10.8,10.2-10.8c6.5,0,10.2,4.9,10.2,10.8C432.7,202.5,429,207.5,422.5,207.5     M422.5,182.9c-7.8,0-13.3,6.2-13.3,13.7s5.5,13.7,13.3,13.7c7.8,0,13.3-6.2,13.3-13.7S430.3,182.9,422.5,182.9 M362.6,169.6v40    h2.9v-34.1l15.2,24.1l15.2-24.1v34.2h3v-40h-2.8l-15.3,24.6l-15.3-24.6H362.6z M324.9,218.1l2.6,0.9l4.9-13.4l-2.7-1L324.9,218.1z     M295.2,195.1c0.1-2.9,2.5-9.3,9.8-9.3c6.9,0,9.4,6.3,9.6,9.3H295.2z M305,182.9c-7.8,0-12.9,6.3-12.9,13.7    c0,7.4,5.6,13.7,13.4,13.7c4.3,0,8.4-2.3,10.9-5.3l-2-2.1c-1.8,2.2-4.9,4.5-8.9,4.5c-6.9,0-10.2-5.7-10.4-9.6h22.5    c0-0.6,0-0.7,0-1.2C317.6,188.6,311.9,182.9,305,182.9 M278.1,175.1c0,1.3,1,2.3,2.3,2.3c1.3,0,2.3-1,2.3-2.3s-1-2.3-2.3-2.3    C279.1,172.8,278.1,173.9,278.1,175.1 M278.9,209.7h3v-26.1h-3V209.7z M263.5,201.4c0,0-2.7,6.1-9.4,6.1c-5.8,0-9.8-4.7-9.8-10.8    c0-6.1,4-10.8,9.8-10.8c6.7,0,9.4,6.1,9.4,6.1V201.4z M263.7,183.6v4.8c0,0-2.9-5.5-9.7-5.5c-7.2,0-12.9,5.6-12.9,13.7    c0,8.1,5.7,13.7,12.9,13.7c5.8,0,8.6-3.8,9.4-5v5.1c0,5.8-3.1,10.2-9.8,10.2c-6.6,0-10-4.5-10-4.5l-2,2.1c0,0,4.3,5.3,12,5.3    c7.6,0,12.8-5,12.8-13.2v-26.7H263.7z M232.2,182.9c-5.4,0-7.6,4.9-7.6,4.9v-4.2h-2.7v26.1h3v-18.8c0,0,2.1-5,6.6-5    c2.4,0,3.5,0.6,3.5,0.6l1.3-2.9C236.2,183.6,234.6,182.9,232.2,182.9 M189.9,195.1c0.1-2.9,2.5-9.3,9.8-9.3c6.9,0,9.4,6.3,9.6,9.3    H189.9z M199.7,182.9c-7.8,0-12.9,6.3-12.9,13.7c0,7.4,5.6,13.7,13.4,13.7c4.3,0,8.4-2.3,10.9-5.3l-2-2.1    c-1.8,2.2-4.9,4.5-8.9,4.5c-6.9,0-10.2-5.7-10.4-9.6h22.5c0-0.6,0-0.7,0-1.2C212.4,188.6,206.6,182.9,199.7,182.9 M167.6,182.9    c-6.4,0-8.9,5.4-8.9,5.4v-4.7H156v26.1h3v-18c0,0,2.3-5.8,8.1-5.8c4.2,0,7.4,2.3,7.4,7.7v16.2h3v-16.6    C177.4,185.9,172.4,182.9,167.6,182.9 M125.6,172.4h19.2v-2.7h-22.2v40h22.6V207h-19.6v-16.4h17.9v-2.7h-17.9    C125.6,187.8,125.6,172.4,125.6,172.4z"></path>
		<path class="st0" d="M693.8,146.6l2.6,0.9l4.9-13.4l-2.7-1L693.8,146.6z M668.5,114.8h5.7v16.3c0,4.3,2.3,7.7,7.4,7.7    c2.6,0,5.1-1.5,5.1-1.5l-1.1-2.6c0,0-1.8,1.2-3.9,1.2c-3.6,0-4.6-2.5-4.6-5.4v-15.7h8.9v-2.7h-8.9v-8.4h-3v8.4h-5.7L668.5,114.8    L668.5,114.8z M655.4,138.2h3V94.9h-2.9L655.4,138.2z M622.5,123.6c0.1-2.9,2.5-9.3,9.8-9.3c6.9,0,9.4,6.3,9.6,9.3H622.5z     M632.3,111.4c-7.8,0-12.9,6.3-12.9,13.7c0,7.4,5.6,13.7,13.4,13.7c4.3,0,8.4-2.3,10.9-5.3l-2-2.1c-1.8,2.2-4.9,4.5-8.9,4.5    c-6.9,0-10.2-5.7-10.4-9.6h22.5c0-0.6,0-0.7,0-1.2C645,117.1,639.2,111.4,632.3,111.4 M572.6,112.1l11.6,27.2l9.1-21.8l9,21.8    l11.7-27.2h-3.1l-8.4,20.4l-8.2-20.4h-1.7l-8.3,20.4l-8.5-20.4C575.8,112.1,572.6,112.1,572.6,112.1z M548.2,119.3c0,0,2-5,6.9-5    c4,0,6.3,2.3,6.3,7.6v16.3h3V121c0-7.3-4.6-9.6-8.6-9.6c-5.8,0-8.2,4.7-8.3,5.1c-1.5-3.7-4.7-5.1-7.9-5.1c-5.8,0-8.1,5.1-8.1,5.1    v-4.4h-2.7v26.1h3v-18.8c0,0,2.2-5,7.2-5c4,0,6.3,2.3,6.3,7.6v16.3h3V119.3z M513.2,122.8c0,7.8-3.3,13.1-11.3,13.1    c-8,0-11.3-5.3-11.3-13.1V98.1h-3v25c0,9.3,5.1,15.7,14.3,15.7c9.2,0,14.3-6.4,14.3-15.7v-25h-3V122.8z M449.9,146.6l2.6,0.9    l4.9-13.4l-2.7-1L449.9,146.6z M421.4,112.1v2.7h16l-17.2,23.3h21.9v-2.7h-16.6l17.2-23.3H421.4z M394.6,114.8h5.7v16.3    c0,4.3,2.3,7.7,7.4,7.7c2.6,0,5.1-1.5,5.1-1.5l-1.1-2.6c0,0-1.8,1.2-3.9,1.2c-3.6,0-4.6-2.5-4.6-5.4v-15.7h8.9v-2.7h-8.9v-8.4h-3    v8.4h-5.7V114.8z M373.8,138.9c6.4,0,8.9-5.3,8.9-5.3v4.6h2.7v-26.1h-3v18.1c0,0-2.3,5.7-8.1,5.7c-4.3,0-7.4-2.3-7.4-7.7v-16.2h-3    v16.6C364.1,135.8,368.9,138.9,373.8,138.9 M333.9,116.4V94.9h-3v43.2h3v-18c0,0,2.3-5.8,8.1-5.8c4.2,0,7.4,2.3,7.4,7.7v16.2h3    v-16.6c0-7.1-4.9-10.1-9.8-10.1C336.4,111.4,333.9,116.4,333.9,116.4 M310.4,135.9c-6.2,0-10.3-5-10.3-10.8    c0-5.8,4.1-10.8,10.3-10.8c5.5,0,8.3,3.9,8.3,3.9l2.1-1.9c0,0-3.6-4.9-10.4-4.9c-7.8,0-13.4,6.2-13.4,13.7    c0,7.6,5.7,13.7,13.4,13.7c7.1,0,10.7-5.3,10.7-5.3l-2.1-2C319,131.6,316.2,135.9,310.4,135.9 M268.2,133.3c0,0,3.4,5.6,11.2,5.6    c4.9,0,9.9-2.5,9.9-7.5c0-4.7-3.9-6.4-8.7-7.5c-4.4-1-7.8-1.9-7.8-5.1c0-2.7,2.6-4.5,6.2-4.5c4.7,0,7.4,2.9,7.4,2.9l2-2.2    c0,0-3.2-3.7-9.3-3.7c-5.7,0-9.2,3.7-9.2,7.4c0,4.3,3.6,6.5,9.3,7.8c4.1,0.9,7.3,1.8,7.3,4.8c0,3.4-4,4.6-6.8,4.6    c-6.2,0-8.8-4.6-8.8-4.6L268.2,133.3z M246.7,135.9c-3.4,0-7.1-1.8-7.1-5.9c0-4.1,4.2-6,7.7-6c5.2,0,8.3,2.2,8.3,2.2v4.4    C255.5,130.7,252.4,135.9,246.7,135.9 M247.8,111.4c-5.5,0-9.8,2.7-9.8,2.7l1.3,2.6c0,0,3.8-2.4,8.5-2.4c2.9,0,7.7,1.1,7.7,7.4v2    c0,0-3.4-2.5-8.7-2.5c-5.1,0-10.3,3.1-10.3,8.8c0,5.8,5.1,8.8,9.5,8.8c6.4,0,9.8-5.2,9.8-5.2v4.5h2.7v-17.1    C258.5,115.7,255.1,111.4,247.8,111.4 M209.9,119.3c0,0,2-5,6.9-5c4,0,6.3,2.3,6.3,7.6v16.3h3V121c0-7.3-4.6-9.6-8.6-9.6    c-5.8,0-8.2,4.7-8.4,5.1c-1.5-3.7-4.7-5.1-7.9-5.1c-5.8,0-8.1,5.1-8.1,5.1v-4.4h-2.7v26.1h3v-18.8c0,0,2.2-5,7.2-5    c3.9,0,6.3,2.3,6.3,7.6v16.3h3L209.9,119.3L209.9,119.3z M174.2,103.6c0,1.3,1,2.3,2.3,2.3s2.3-1,2.3-2.3s-1-2.3-2.3-2.3    S174.2,102.4,174.2,103.6 M175,138.2h3v-26.1h-3V138.2z M158.7,138.2h3V94.9h-2.9L158.7,138.2z M125.6,98.1h-3v40h3v-19.6    l20.3,19.6h4.3l-21-20.4l18.1-19.6h-3.9l-17.8,19.3L125.6,98.1L125.6,98.1z"></path>
		<path class="st0" d="M626.5,39.5c-5.8,0-7.9,4.9-7.9,4.9s-1.7-4.9-8.2-4.9c-5.4,0-7.3,4.6-7.3,4.6v-3.9h-4.5v26.4h4.8V48.2    c0,0,1.8-4.2,5.7-4.2c3.4,0,5.7,2.1,5.7,6.4v16.3h4.8V48.2c0,0,1.7-4.2,5.7-4.2c3.4,0,5.7,2.1,5.7,6.4v16.3h4.8v-17    C635.6,43.2,632,39.5,626.5,39.5 M575.2,67.4c5.7,0,8.1-4.7,8.1-4.7v4.1h4.5V40.2H583v18.3c0,0-2.1,4.3-6.6,4.3    c-3.6,0-6.3-2-6.3-6.5V40.2h-4.8v17C565.3,63.8,570,67.4,575.2,67.4 M548,31.8c0,1.8,1.5,3.3,3.3,3.3c1.8,0,3.3-1.5,3.3-3.3    c0-1.8-1.5-3.3-3.3-3.3C549.5,28.5,548,30,548,31.8 M548.8,66.7h4.8V40.2h-4.8V66.7z M536.9,39.5c-5,0-7.4,4.7-7.4,4.7v-4.1h-4.5    v26.4h4.8V48.5c0,0,1.9-4.5,6.1-4.5c2,0,3,0.6,3,0.6l1.8-4.3C540.8,40.2,539.1,39.5,536.9,39.5 M494.9,51.2    c0.3-2.7,2.7-7.2,8.4-7.2c5.3,0,8,4.2,8.2,7.2H494.9z M503.3,39.5c-8,0-13.2,6.2-13.2,13.9c0,7.8,5.8,13.9,13.8,13.9    c7,0,11-5.2,11-5.2l-3-3.1c0,0-2.7,3.9-8,3.9c-5,0-8.8-3.7-9.1-7.7h21.3c0-0.6,0-1,0-1.5C516.2,45.1,510.7,39.5,503.3,39.5     M464.7,44.6h5.1v14.5c0,5.8,4.2,8.3,8,8.3c1.5,0,3.2-0.3,5.5-1.6l-1.8-4c0,0-1.5,1.1-3,1.1c-2.6,0-3.8-1.5-3.8-4.1V44.6h8.2v-4.4    h-8.2v-8.1h-4.8v8.1h-5.1L464.7,44.6L464.7,44.6z M435.8,61.8c0,0,3.9,5.6,11.3,5.6c5.1,0,10.5-2.6,10.5-7.7    c0-5.4-4.3-7.3-9.3-8.3c-4.3-0.9-6.4-2-6.4-4c0-1.7,1.7-3.4,5-3.4c4,0,6.6,2.9,6.6,2.9l3.1-3.3c0,0-3.6-4-9.8-4    c-5.9,0-9.7,3.8-9.7,7.6c0,5,4,7.2,9.7,8.3c4.1,0.8,6,2,6,4.2c0,2.1-3,3.3-5.7,3.3c-5.2,0-8-4.3-8-4.3L435.8,61.8z M420.2,31.8    c0,1.8,1.5,3.3,3.3,3.3s3.3-1.5,3.3-3.3c0-1.8-1.5-3.3-3.3-3.3S420.2,30,420.2,31.8 M421.1,66.7h4.8V40.2h-4.8V66.7z M399.5,39.5    c-5.7,0-8.1,4.4-8.1,4.4v-3.7h-4.5v26.4h4.8V48.5c0,0,2.3-4.5,6.6-4.5c3.6,0,6.3,2,6.3,6.5v16.2h4.8v-17    C409.5,43.2,404.8,39.5,399.5,39.5 M369.7,31.8c0,1.8,1.5,3.3,3.3,3.3c1.8,0,3.3-1.5,3.3-3.3c0-1.8-1.5-3.3-3.3-3.3    C371.1,28.5,369.7,30,369.7,31.8 M370.5,66.7h4.8V40.2h-4.8V66.7z M349.8,39.5c-5.8,0-7.9,4.9-7.9,4.9s-1.7-4.9-8.2-4.9    c-5.4,0-7.3,4.6-7.3,4.6v-3.9h-4.5v26.4h4.8V48.2c0,0,1.8-4.2,5.7-4.2c3.4,0,5.7,2.1,5.7,6.4v16.3h4.8V48.2c0,0,1.7-4.2,5.7-4.2    c3.4,0,5.7,2.1,5.7,6.4v16.3h4.8v-17C358.9,43.2,355.2,39.5,349.8,39.5 M290.6,61.8c0,0,3.9,5.6,11.3,5.6c5.1,0,10.5-2.6,10.5-7.7    c0-5.4-4.3-7.3-9.3-8.3c-4.3-0.9-6.4-2-6.4-4c0-1.7,1.7-3.4,5-3.4c4,0,6.6,2.9,6.6,2.9l3.1-3.3c0,0-3.6-4-9.8-4    c-5.9,0-9.7,3.8-9.7,7.6c0,5,4,7.2,9.7,8.3c4.1,0.8,6,2,6,4.2c0,2.1-3,3.3-5.7,3.3c-5.2,0-8-4.3-8-4.3L290.6,61.8z M262.1,51.2    c0.3-2.7,2.7-7.2,8.4-7.2c5.3,0,8,4.2,8.2,7.2H262.1z M270.6,39.5c-8,0-13.2,6.2-13.2,13.9c0,7.8,5.8,13.9,13.8,13.9    c7,0,11-5.2,11-5.2l-3-3.1c0,0-2.7,3.9-8,3.9c-5,0-8.8-3.7-9.1-7.7h21.3c0-0.6,0-1,0-1.5C283.4,45.1,278,39.5,270.6,39.5     M242.6,58.3c0,0-2.5,4.6-7.8,4.6c-5.4,0-8.7-4.2-8.7-9.4c0-5.2,3.5-9.4,8.7-9.4s7.8,4.6,7.8,4.6V58.3z M234.1,39.5    c-7.2,0-12.8,6.1-12.8,13.9s5.7,13.9,12.8,13.9c6.3,0,8.9-4.5,8.9-4.5v3.8h4.4V23.4h-4.8v20.1C242.6,43.5,239.9,39.5,234.1,39.5     M202.4,39.5c-5.7,0-8.1,4.4-8.1,4.4v-3.7h-4.5v26.4h4.8V48.5c0,0,2.3-4.5,6.6-4.5c3.6,0,6.3,2,6.3,6.5v16.2h4.8v-17    C212.3,43.2,207.6,39.5,202.4,39.5 M166.4,67.4c5.7,0,8.1-4.7,8.1-4.7v4.1h4.5V40.2h-4.8v18.3c0,0-2.1,4.3-6.6,4.3    c-3.6,0-6.3-2-6.3-6.5V40.2h-4.8v17C156.5,63.8,161.2,67.4,166.4,67.4 M126.7,43.9V31.2h6.5c4.5,0,7.3,2.5,7.3,6.3    s-2.7,6.3-7.3,6.3L126.7,43.9L126.7,43.9z M134.4,62.1h-7.7V48.4h7.7c5.7,0,8.2,3.1,8.2,6.9C142.6,59,140.1,62.1,134.4,62.1     M121.9,66.7h12.5c7.9,0,13-4.5,13-11.4c0-8-6.1-9.7-6.7-9.8c0.6-0.1,4.5-2.4,4.5-7.8c0-6.7-4.6-10.9-12.9-10.9h-10.5V66.7z"></path>
	</g>
	<polygon class="st1" points="76.6,39.7 76.6,26.2 14.1,26.2 20.4,39.7  "></polygon>
	<polygon class="st1" points="33,66.7 76.6,66.7 76.6,53.2 26.7,53.2  "></polygon>
</g>
</svg>