<svg xmlns="http://www.w3.org/2000/svg" xmlns:xlink="http://www.w3.org/1999/xlink" id="Layer_1" x="0px" y="0px" width="553px" height="127px" viewBox="0 0 553 127" style="enable-background:new 0 0 553 127;" xml:space="preserve">
<style type="text/css">
	.st0{fill:#FFFF00;}
	.st1{fill-rule:evenodd;clip-rule:evenodd;}
</style>
<title>rcm-logo</title>
<g>
	<polygon class="st0" points="442.3,113.4 442.3,9.7 546,9.7 546,113.4  "></polygon>
	<path d="M443.3,10.7l101.7,0l0,101.7H443.3L443.3,10.7 M441.3,8.7l0,2l0,101.7l0,2h2H545h2l0-2l0-101.7l0-2l-2,0l-101.7,0   L441.3,8.7L441.3,8.7z"></path>
</g>
<path d="M494.1,73.8l32.5,32.4l12.7-12.7l-32.5-32.4l6.3-6.3V42.2l4.5-4.5v10.5l4.4,4.4l15.9-15.9l4.3,4.2  c-0.2-7.3-3.1-14.3-8.3-19.5c-8.5-8.2-16.9-3.4-19.8-0.5l-15.3,15.3l3.8,3.8l-8.5,8.4l-8.4-8.4l3.8-3.8l-15.3-15.3  c-2.9-2.9-11.4-7.7-19.8,0.5c-5.2,5.2-8.1,12.2-8.2,19.5l4.2-4.2l15.8,15.8l4.4-4.4V37.7l4.5,4.5v12.6l6.3,6.3l-32.2,32.1l12.8,12.8  L494.1,73.8L494.1,73.8z"></path>
<path d="M28.4,83.2c-2.2-1-4.6-1.5-7.1-1.5c-4.3,0-8.3,1.8-11.3,4.8c-2.8,2.9-4.4,6.8-4.4,10.9c-0.1,4.3,1.6,8.4,4.8,11.3  c3.1,2.8,7,4.4,11.2,4.4c2.3-0.1,4.7-0.6,6.8-1.4v-9.3c-1.7,2-4.1,3.1-6.7,3.2c-4.3,0.2-7.9-3.1-8.1-7.4c0-0.2,0-0.5,0-0.7  c0-4.6,3.2-8.3,8-8.3c2.7,0,5.2,1.2,6.8,3.3L28.4,83.2L28.4,83.2z"></path>
<path class="st1" d="M42.8,97.6c2.4-0.1,4.5,1.7,4.6,4.2c0,0.1,0,0.3,0,0.4c0,2.6-2.1,4.6-4.6,4.6c-2.6,0-4.6-2.1-4.6-4.6  c-0.1-2.4,1.8-4.5,4.2-4.6C42.5,97.5,42.6,97.5,42.8,97.6z M54.3,92h-7.2v2c-1.6-1.7-3.9-2.7-6.3-2.6c-6,0-10.2,5-10.2,10.8  S34.9,113,40.9,113c2.4,0.1,4.7-1,6.1-3h0.1v2.3h7.2V92z"></path>
<path class="st1" d="M65.2,92H58v30.4h7.2v-12.1c1.6,1.7,3.9,2.7,6.3,2.6c6,0,10.2-4.9,10.2-10.8s-4.2-10.9-10.3-10.9  c-2.4-0.1-4.7,1-6.1,3h-0.1L65.2,92L65.2,92z M69.6,97.6c2.4-0.1,4.5,1.7,4.6,4.2c0,0.1,0,0.3,0,0.4c0,2.6-2.1,4.6-4.6,4.6  c-2.6,0-4.6-2.1-4.6-4.6c-0.1-2.4,1.8-4.5,4.2-4.6C69.3,97.6,69.4,97.6,69.6,97.6z"></path>
<path class="st1" d="M91.5,92h-7.2v20.3h7.2V92z M87.9,80.2c-2.2,0-4,1.8-4,4s1.8,4,4,4s4-1.8,4-4C91.9,82,90.1,80.2,87.9,80.2z"></path>
<polygon points="103.2,97.9 107.3,97.9 107.3,92 103.2,92 103.2,85.9 96,85.9 96,92 93.7,92 93.7,97.9 96,97.9 96,112.3   103.2,112.3 103.2,97.9 "></polygon>
<path class="st1" d="M119.3,97.6c2.4-0.1,4.5,1.7,4.6,4.2c0,0.1,0,0.3,0,0.4c0,2.6-2.1,4.6-4.6,4.6c-2.6,0-4.6-2.1-4.6-4.6  c-0.1-2.4,1.8-4.5,4.2-4.6C119,97.5,119.1,97.5,119.3,97.6L119.3,97.6z M130.9,92h-7.2v2c-1.6-1.7-3.9-2.7-6.3-2.6  c-6,0-10.2,5-10.2,10.8s4.2,10.9,10.2,10.9c2.4,0.1,4.7-1,6.1-2.9h0.1v2.3h7.2L130.9,92L130.9,92z"></path>
<polygon points="141.9,79.4 134.8,79.4 134.8,112.3 141.9,112.3 141.9,79.4 "></polygon>
<polygon points="156.8,112.3 164.5,112.3 167,95.1 167.1,95.1 173.9,112.3 177,112.3 184.2,95.1 184.3,95.1 186.5,112.3   194.2,112.3 189.7,82.4 182,82.4 175.6,98.4 169.5,82.4 161.9,82.4 156.8,112.3 "></polygon>
<path class="st1" d="M207,97.6c2.4-0.1,4.5,1.7,4.6,4.2c0,0.1,0,0.3,0,0.4c0,2.6-2.1,4.6-4.6,4.6c-2.6,0-4.6-2.1-4.6-4.6  c-0.1-2.4,1.8-4.5,4.2-4.6C206.7,97.5,206.9,97.5,207,97.6L207,97.6z M218.6,92h-7.2v2c-1.6-1.7-3.9-2.7-6.3-2.6  c-6,0-10.2,5-10.2,10.8s4.3,10.9,10.3,10.9c2.4,0.1,4.7-1,6.1-2.9h0.1v2.3h7.2L218.6,92L218.6,92z"></path>
<path d="M229.7,92h-7.2v20.3h7.2v-10.6c0-2.5,0.8-4.7,3.8-4.7c3.6,0,3.3,3.4,3.3,5.3v9.9h7.2V99.7c0-5-2.2-8.4-7.6-8.4  c-2.6-0.2-5.1,1.1-6.5,3.3h-0.1L229.7,92L229.7,92z"></path>
<path class="st1" d="M258.4,97.6c2.4-0.1,4.5,1.8,4.6,4.2c0,0.1,0,0.3,0,0.4c0,2.6-2.1,4.6-4.6,4.6c-2.6,0-4.6-2.1-4.6-4.6  c-0.1-2.4,1.8-4.5,4.2-4.6C258.1,97.5,258.2,97.5,258.4,97.6L258.4,97.6z M270,92h-7.2v2c-1.6-1.7-3.9-2.7-6.3-2.6  c-6,0-10.2,5-10.2,10.8s4.2,10.8,10.2,10.8c2.4,0.1,4.7-1,6.1-2.9h0.1v2.3h7.3V92z"></path>
<path class="st1" d="M296.1,92h-7.2v2.1h-0.1c-1.4-1.9-3.7-3-6-2.8c-6.2,0-10.4,5.1-10.4,11s4.1,10.4,10,10.4c2.5,0.1,4.8-1,6.5-2.8  v0.9c0,3.3-0.8,5.8-4.6,5.8c-0.7,0-1.4-0.2-2.1-0.5c-0.6-0.3-1.1-0.9-1.3-1.5h-8.1c0.6,5.3,6.9,7.8,11.6,7.8  c7.5,0,11.8-3.5,11.8-12.1L296.1,92L296.1,92z M284.5,97.4c2.4-0.1,4.5,1.7,4.6,4.2c0,0.1,0,0.3,0,0.4c0,2.6-2.1,4.6-4.6,4.6  s-4.6-2.1-4.6-4.6c-0.1-2.4,1.8-4.5,4.2-4.6C284.2,97.4,284.4,97.4,284.5,97.4z"></path>
<path class="st1" d="M305.5,99.2c0.6-2.3,3-3.7,5.3-3.1c1.5,0.4,2.7,1.6,3.1,3.1H305.5z M320.5,102.6c0-6.9-4.1-11.3-11.1-11.3  c-6.6,0-11.2,4.1-11.2,10.8c0,7,5,10.8,11.8,10.8c4.6,0,9.2-2.2,10.3-7h-6.9c-0.7,1.2-2,2-3.4,1.9c-3,0-4.5-1.6-4.5-4.5h15.2  L320.5,102.6L320.5,102.6z"></path>
<path d="M330.1,92h-7.2v20.3h7.2v-9.7c0-2.3,0-5.7,3.2-5.7s3.2,3.4,3.2,5.7v9.7h7.2v-9.7c0-2.4,0.1-5.5,3.4-5.5c3,0,3,3.4,3,5.5v9.7  h7.2v-13c0-4.7-1.8-8-6.9-8c-2.8-0.1-5.5,1.4-6.9,3.9c-1.4-2.5-4.1-4-6.9-3.9c-2.5-0.1-5,1.1-6.4,3.2h-0.1L330.1,92L330.1,92z"></path>
<path class="st1" d="M367,99.2c0.6-2.3,3-3.7,5.3-3.1c1.5,0.4,2.7,1.6,3.1,3.1H367z M382,102.6c0-6.9-4.1-11.3-11.1-11.3  c-6.6,0-11.2,4.1-11.2,10.8c0,7,5,10.8,11.8,10.8c4.6,0,9.2-2.2,10.3-7h-6.9c-0.7,1.2-2,2-3.4,1.9c-3,0-4.5-1.6-4.5-4.5H382V102.6  L382,102.6z"></path>
<path d="M391.6,92h-7.2v20.3h7.2v-10.6c0-2.5,0.8-4.7,3.8-4.7c3.6,0,3.2,3.4,3.2,5.3v9.9h7.2V99.7c0-5-2.2-8.4-7.6-8.4  c-2.6-0.2-5.1,1.1-6.5,3.3h-0.1L391.6,92L391.6,92z"></path>
<polygon points="417.5,97.9 421.6,97.9 421.6,92 417.5,92 417.5,85.9 410.3,85.9 410.3,92 408,92 408,97.9 410.3,97.9 410.3,112.3   417.5,112.3 417.5,97.9 "></polygon>
<path class="st1" d="M243.7,60.6c4.2-0.8,6.5-4.3,6.5-8.4c0-6.4-4.5-9.2-10.4-9.2h-11.6v29.8h7.8V61.4h0.1l7.3,11.5h9.7L243.7,60.6z   M236.1,49h0.8c2.5,0,5.4,0.5,5.4,3.7s-2.9,3.7-5.4,3.7h-0.8V49z"></path>
<path class="st1" d="M264.8,58.2c2.4-0.1,4.5,1.7,4.6,4.2c0,0.1,0,0.3,0,0.4c0,2.6-2.1,4.6-4.6,4.6s-4.6-2.1-4.6-4.6  c-0.1-2.4,1.8-4.5,4.2-4.6C264.6,58.1,264.7,58.1,264.8,58.2z M276.4,52.6h-7.2v2c-1.6-1.7-3.9-2.7-6.3-2.7c-6,0-10.2,5-10.2,10.8  S257,73.6,263,73.6c2.4,0.1,4.7-1,6.1-2.9h0.1v2.3h7.2L276.4,52.6L276.4,52.6z"></path>
<path class="st1" d="M287.6,52.6h-7.2v20.3h7.2V52.6z M284,40.7c-2.2,0-4,1.8-4,4s1.8,4,4,4s4-1.8,4-4C288,42.5,286.2,40.8,284,40.7  z"></path>
<path d="M299.4,58.5h5v-5.9h-5v-3.3c0-2.3,0.6-3.4,2.5-3.4c0.9,0,1.7,0.3,2.5,0.7v-6.2c-1-0.5-2-0.7-3.1-0.7c-2.7,0-5.3,1.2-7.1,3.3  c-2,2.3-2.1,4.3-2.1,7.1v2.6h-2.5v5.9h2.5v14.4h7.2L299.4,58.5L299.4,58.5z"></path>
<path d="M313.9,58.5h5v-5.9h-5v-3.3c0-2.3,0.6-3.4,2.5-3.4c0.9,0,1.7,0.3,2.5,0.7v-6.2c-1-0.5-2-0.7-3.1-0.7c-2.7,0-5.3,1.2-7.1,3.3  c-2,2.3-2.1,4.3-2.1,7.1v2.6h-2.5v5.9h2.5v14.4h7.2L313.9,58.5L313.9,58.5z"></path>
<path class="st1" d="M326.4,59.8c0.6-2.3,3-3.7,5.3-3.1c1.5,0.4,2.7,1.6,3.1,3.1H326.4z M341.4,63.2c0-6.9-4.1-11.3-11.1-11.3  c-6.6,0-11.2,4.1-11.2,10.8c0,7,5,10.8,11.8,10.8c4.6,0,9.2-2.2,10.3-7h-6.9c-0.7,1.2-2,2-3.4,1.9c-3,0-4.5-1.6-4.5-4.5h15.2  L341.4,63.2L341.4,63.2z"></path>
<path class="st1" d="M351,52.6h-7.2v20.3h7.2V52.6z M347.4,40.7c-2.2,0-4,1.8-4,4s1.8,4,4,4s4-1.8,4-4  C351.4,42.5,349.6,40.8,347.4,40.7z"></path>
<path d="M370.8,53.2c-2.1-0.9-4.4-1.4-6.7-1.3c-4.4,0-8.9,2.2-8.9,7.2c0,3.6,2.3,4.8,4.5,5.3s4.5,0.7,4.5,2.3c0,1.1-1.4,1.5-2.3,1.5  c-2-0.2-4-0.9-5.7-2.1l-2.6,5c2.5,1.5,5.3,2.3,8.2,2.3c4.7,0,9.6-2.2,9.6-7.6c0-3.8-2.5-5.3-5.9-6c-1-0.2-3.2-0.4-3.2-1.8  c0-1,1.4-1.4,2.3-1.4c1.4,0,2.7,0.4,3.9,1L370.8,53.2L370.8,53.2z"></path>
<path class="st1" d="M380.3,59.8c0.6-2.3,3-3.7,5.3-3.1c1.5,0.4,2.7,1.6,3.1,3.1H380.3z M395.3,63.2c0-6.9-4.1-11.3-11.1-11.3  c-6.6,0-11.2,4.1-11.2,10.8c0,7,5,10.8,11.8,10.8c4.6,0,9.2-2.2,10.3-7H388c-0.7,1.2-2,2-3.4,1.9c-3,0-4.5-1.6-4.5-4.5h15.2  L395.3,63.2L395.3,63.2z"></path>
<path d="M404.9,52.6h-7.2v20.3h7.2V62.3c0-2.5,0.8-4.7,3.8-4.7c3.6,0,3.3,3.4,3.3,5.3v9.9h7.2V60.3c0-5-2.2-8.4-7.6-8.4  c-2.6-0.2-5.1,1.1-6.5,3.3h-0.1L404.9,52.6L404.9,52.6z"></path>
</svg>