<?xml version="1.0" encoding="utf-8"?>
<!-- Generator: Adobe Illustrator 24.0.2, SVG Export Plug-In . SVG Version: 6.00 Build 0)  -->
<svg version="1.1" id="Layer_1" xmlns="http://www.w3.org/2000/svg" xmlns:xlink="http://www.w3.org/1999/xlink" x="0px" y="0px"
	 viewBox="0 0 566.97 568.5" style="enable-background:new 0 0 566.97 568.5;" xml:space="preserve">
<style type="text/css">
	.st0{clip-path:url(#SVGID_3_);fill:#5AB1BB;}
	.st1{fill:#5AB1BB;}
	.st2{fill:#FFFFFF;}
	.st3{clip-path:url(#SVGID_4_);fill:#5AB1BB;}
</style>
<g>
	<g>
		<defs>
			<circle id="SVGID_1_" cx="283.87" cy="286.36" r="235.52"/>
		</defs>
		<clipPath id="SVGID_3_">
			<use xlink:href="#SVGID_1_"  style="overflow:visible;"/>
		</clipPath>
		<path class="st0" d="M182.44,54.41C182.44,54.41,182.44,54.41,182.44,54.41C182.5,54.44,182.52,54.46,182.44,54.41z"/>
		<path class="st0" d="M128.78,34.99C128.88,34.97,128.83,34.98,128.78,34.99C128.8,34.94,128.82,34.9,128.78,34.99z"/>
		<path class="st0" d="M146.59,86.09C146.52,86.02,146.56,86.05,146.59,86.09C146.54,86.1,146.48,86.1,146.59,86.09z"/>
		<path class="st0" d="M162.74,51.27C162.74,51.16,162.74,51.22,162.74,51.27C162.69,51.24,162.65,51.2,162.74,51.27z"/>
		<path class="st0" d="M192.35,94.09c0.01-0.02,0.02-0.03,0.04-0.05c0.03,0.02,0.05,0.04,0.07,0.06c0,0-0.03,0.04-0.03,0.04
			C192.4,94.13,192.38,94.11,192.35,94.09z"/>
		<path class="st0" d="M130.18,102.56C130.14,102.47,130.16,102.52,130.18,102.56C130.13,102.55,130.08,102.54,130.18,102.56z"/>
		<path class="st0" d="M127.36,64.87C127.43,64.93,127.39,64.9,127.36,64.87C127.4,64.86,127.44,64.85,127.36,64.87z"/>
		<path class="st0" d="M141.26,80.12C141.16,80.14,141.21,80.13,141.26,80.12C141.24,80.17,141.22,80.22,141.26,80.12z"/>
		<path class="st0" d="M73.06,40.5C73.18,40.48,73.12,40.49,73.06,40.5C73.08,40.46,73.1,40.41,73.06,40.5z"/>
		<path class="st0" d="M199.55,65.3C199.5,65.2,199.53,65.25,199.55,65.3C199.5,65.29,199.45,65.28,199.55,65.3z"/>
		<path class="st0" d="M165.7,33.2c0.02-0.01,0.04-0.03,0.05-0.03c0.01,0,0.02,0.03,0.03,0.05c-0.02,0.01-0.04,0.03-0.05,0.03
			C165.72,33.25,165.72,33.22,165.7,33.2z"/>
		<path class="st0" d="M173.59,90.97C173.66,91.05,173.62,91.01,173.59,90.97C173.64,90.97,173.69,90.96,173.59,90.97z"/>
		<path class="st0" d="M128.9,112.9C128.7,112.77,128.74,112.8,128.9,112.9C128.71,112.86,128.67,112.86,128.9,112.9z"/>
		<path class="st0" d="M175.07,25.44c0.03-0.01,0.07-0.02,0.1-0.02c0,0,0.01,0.04,0.02,0.06c-0.03,0.01-0.07,0.02-0.1,0.03
			C175.08,25.5,175.07,25.46,175.07,25.44z"/>
		<path class="st0" d="M193.11,65.81C193.11,65.92,193.11,65.86,193.11,65.81C193.15,65.85,193.18,65.89,193.11,65.81z"/>
		<path class="st0" d="M158.36,121.93C158.42,122,158.39,121.97,158.36,121.93C158.4,121.93,158.45,121.92,158.36,121.93z"/>
		<path class="st0" d="M125.52,33.77C125.43,33.74,125.46,33.75,125.52,33.77C125.46,33.79,125.43,33.81,125.52,33.77z"/>
		<path class="st0" d="M77.68,37.25C77.56,37.18,77.6,37.2,77.68,37.25C77.58,37.25,77.55,37.25,77.68,37.25z"/>
		<path class="st0" d="M145.95,78.01C145.99,77.92,145.97,77.97,145.95,78.01C145.93,77.97,145.9,77.93,145.95,78.01z"/>
		<path class="st0" d="M201.34,62.12C201.45,62.15,201.4,62.13,201.34,62.12C201.38,62.09,201.42,62.06,201.34,62.12z"/>
		<path class="st0" d="M615.28,386.67c-20.43-9.22-14.42-1.41-31.74-15.43c-5.77-3.24-13.44-4.79-18.23-9.72
			c-15.97-6.78-31.91-14.44-46.88-24.25c-1.82-3.9-8.28-3.27-12.14-6.13c-7.09-2.42-13.81-3.85-20.13-8.3
			c-5.95-2.77-14.17-3.9-19.18-8.89c-24.85-9.93,1.43-7.94-31.59-20.76c-45.28-11.5-50.46-34.48-61.25-27.8
			c-2.8-2.75-8.87-3.37-12.17-7.32c-1.32-1.74-4.15-0.52-5.46-2.87c-4.83-6.53-25.18-19.63-25.18-19.63l-26.28,2.24l2.35-3.02
			l-22.37-12.88l-14.56-9.05c0,0-7.24-1.09-16.08-2.37c-12.85-1.85-29.1-4.09-31.42-3.91c-0.27-0.74,1.72,15.26-0.85,18.58
			c-4.92,6.35-12.37,25.46-15.69,23.45c-0.44-0.27-0.83,0.98-2.51,1.54c-1.4,0.46-4.62,19.73-6.38,20.14
			c-0.96,0.23-2.68-27.66-2.91-28.51l-0.8-2.93c-0.02-0.06-0.19-0.01-0.13,0c0.81,0.12-5.55-8.74-6.35-7.84
			c0,0-23.54,10.57-25.09,11.47c-3.14,1.83-6.02,4.9-9.24,6.57c-3.3,1.71-10.32,13.43-13.31,15.28c-2.67,1.64-5.04,4.3-8.25,4.85
			c-1.22,0.21-2.41,0.15-3.64,0.16c-1.4,0.01-2.64,0.48-3.83,1.21c-2.44,1.51-12.16,7.08-14.99,6.72c-3.09-0.4-5.54-2.78-8.7-2.97
			c-3.54-0.21-14.03,0.74-15.68,0.18c-1.62-0.55-30.29,8.27-35.3,10.3c-0.02,0.04-0.04,0.08-0.08,0.12
			c-0.46,0.44-1.05,0.79-1.38,1.35c-0.14,0.24-0.44,0.33-0.68,0.18c-2.78-1.71-5.8-2.92-8.93-3.81c-2.73-0.78-5.52-1.33-8.32-1.82
			c-2.8-0.5-5.55-0.98-8.24-1.92c-5.13-1.79-9.86-4.51-14.73-6.89c-23.52,4.39-49.35-3.72-73.48-0.36
			c-23.27,1.34-46.3,6.31-70.06,3.58c-50.63-8.17-57.13-6.87-74.25-9.54c-25.25-3.69-16.14-7.84-22.18,11.41l152.47,202.5
			L524.93,591.5C553.62,472.36,623.69,391.21,615.28,386.67z"/>
		<path class="st0" d="M157.71,191.07c0.39-1.03,0.62-2.12,0.95-3.17c0.35-1.1-0.28-2.35,0.52-3.2c0.34-0.02,1.79,0.16,2.13,0.12
			c0.55-0.07,1.09-0.17,1.63-0.27c1.43-0.26,2.26-0.14,3.64,0.14c0.09,0.02,0.98,1.2,1.13,1.38c-0.21,0.37-0.71,0.01-0.96,0.45
			c2.94,0.77,2.34,0.91,2.79,1.59c0.35,0.5,0.34,1.03,0.02,1.55c-0.38,0.62-0.9,0.56-2.02,1.1c-0.65,0.31-1.69,1.26-2.54,1.51
			c-0.83,0.24-2.82,0.4-3.63,0.1c-0.29-0.11-0.6-0.26-0.89-0.24c-1,0.1-1.93-0.01-2.87-0.43c-0.05-0.02-0.09-0.03-0.14-0.05
			C157.55,191.45,157.64,191.26,157.71,191.07z"/>
		<path class="st0" d="M154,26.28C154.1,26.26,154.05,26.27,154,26.28C154.02,26.23,154.04,26.18,154,26.28z"/>
		<path class="st0" d="M283.44,2.04c0.01-0.02,0.02-0.03,0.04-0.05c0.03,0.02,0.05,0.04,0.08,0.06c0,0-0.03,0.04-0.03,0.04
			C283.49,2.08,283.46,2.06,283.44,2.04z"/>
		<path class="st0" d="M371.17,61.62C371.21,61.59,371.26,61.56,371.17,61.62C371.27,61.65,371.22,61.63,371.17,61.62z"/>
		<path class="st0" d="M97.4,33.04C97.52,33.01,97.46,33.03,97.4,33.04C97.41,33,97.43,32.95,97.4,33.04z"/>
		<path class="st0" d="M176.2,37.1c0.02-0.01,0.03-0.04,0.05-0.03c0.01,0,0.03,0.03,0.04,0.04c-0.02,0.01-0.03,0.04-0.05,0.04
			C176.23,37.15,176.22,37.12,176.2,37.1z"/>
		<path class="st0" d="M191.47,69.37c0.03-0.01,0.06-0.03,0.1-0.04c0,0,0.02,0.03,0.03,0.05c-0.03,0.01-0.06,0.03-0.1,0.04
			C191.49,69.42,191.48,69.39,191.47,69.37z"/>
		<path class="st0" d="M150.66,25.1C150.56,25.08,150.6,25.09,150.66,25.1C150.6,25.13,150.56,25.14,150.66,25.1z"/>
		<path class="st0" d="M102.03,29.64C101.91,29.57,101.95,29.59,102.03,29.64C101.94,29.64,101.9,29.64,102.03,29.64z"/>
		<path class="st0" d="M285.01,148.37c-0.12-0.02-0.25,0.14-0.33,0.26c-0.72,1.08-1.4,2.2-2.15,3.26c-0.39,0.55-0.91,0.99-1.34,1.51
			c-0.57,0.7-1.02,1.46-1.18,2.39c-0.04,0.25-0.23,0.47-0.38,0.7c-0.25,0.38-0.51,0.75-0.73,1.16c-1.11,0.41-2.27,0.67-3.44,0.83
			c-1.66,0.23-3.33,0.26-5,0.24c-1.63-0.02-7.07,0.01-8.07,0.15c-0.09,0.01-0.18,0.07-0.27,0.07c-1.48,0.13-2.96,0.62-4.46,0.17
			c-0.73-0.22-1.36-0.58-1.94-1.05c-0.12-0.1-0.26-0.19-0.36-0.31c-0.53-0.61-1.22-0.85-1.98-0.97c-0.32-0.05-2.83-0.32-3-0.01
			c-0.51,0.91-1.3,1.42-2.21,1.74c-0.49,0.17-0.96,0.34-1.35,0.74c-0.29,0.3-0.7,0.29-1.08,0.24c-0.46-0.07-0.84,0.08-1.21,0.34
			c-0.49,0.34-1.03,0.29-1.44-0.15c-0.19-0.21-0.42-0.21-0.66-0.12c-0.15,0.05-0.29,0.14-0.44,0.17c-0.59,0.14-1.11,0.08-1.36-0.7
			c-0.13-0.42-0.36-0.77-0.8-0.87c-0.29-0.06-0.6-0.08-0.89-0.15c-0.74-0.19-1.21-0.73-1.36-1.59c-0.92,0.22-71.6,31.46-72.03,31.56
			l0.41-2.12c0.47-0.13,71.07-31.38,72.58-31.69c0.3-0.06,0.35,0.46,0.44,0.22c0.21-0.54,0.59-0.77,1.08-0.83
			c0.22-0.03,0.33-0.15,0.45-0.31c0.32-0.44,0.64-0.89,0.98-1.31c0.16-0.2,0.25-0.38,0.22-0.65c-0.05-0.57,0.31-1.09,0.84-1.25
			c0.85-0.25,1.71-0.49,2.57-0.6c0.75-0.1,1.5,0,2.14,0.51c0.07,0.06,0.2,0.1,0.28,0.09c0.65-0.07,1.28-0.05,1.9,0.17
			c0.24,0.08,3.67-0.19,4.42-0.28c0.13-0.02,0.26-0.07,0.39-0.1c0.33-0.06,0.65-0.14,0.98-0.18c0.3-0.04,0.6-0.04,0.91-0.07
			c0.08-0.01,0.2-0.07,0.26-0.13c0.45-0.45,0.98-0.7,1.57-0.84c0.11-0.03,0.22-0.12,0.33-0.17c0.18-0.09,0.35-0.24,0.53-0.25
			c0.4-0.02,0.76-0.1,1.11-0.34c0.18-0.12,6-2.21,6.38-2.76c0.17-0.25,0.73-0.76,0.72-0.88c-0.04-0.44-0.1-0.89-0.1-1.34
			c0-0.9,0.28-6.41,0.26-6.58c-0.11-0.96,2.86-9.53,2.84-9.66c0.07-0.07,1.23,1.26,1.3,1.18c3.87,0.41-1.93,2.52,1.93,3
			c3.56,0.44,7.12,0.94,10.66,1.54c1.77,0.3,3.55,0.63,5.31,0.98c0.46,0.09,0.92,0.19,1.38,0.28c0,0.5,0.01,0.98-0.01,1.47
			c-0.07,1.65-0.23,3.29-0.62,4.91c-0.13,0.55-0.3,1.08-0.43,1.63c-0.15,0.59-0.41,1.11-0.81,1.56c-0.6,0.66-1.21,1.33-1.79,2.02
			c-0.36,0.42-0.63,0.9-0.84,1.49c0.82-0.15,1.64-0.73,2.35-0.43"/>
		<path class="st0" d="M143.49,189.95c2.66-2.15-2.49-7.46,0.59-9.01c0.02-0.01,7.7,2.82,7.71,2.81c0.08,0.06,0.17,0.12,0.26,0.17
			c0.27,0.15,0.49,0.37,0.76,0.53c0.81,0.47,1.61,0.92,2.61,0.42c0.31-0.15,0.78-0.22,1.08-0.1c1.16,0.46,2.28,0.17,3.41-0.08
			c0.14-0.03,0.3-0.04,0.49-0.07c0.25,0.56,0.58,1.08,0.97,1.55c1.19,1.43,2.86,2.38,4.08,3.77c-0.12,0.19-0.2,0.39-0.25,0.61
			c-0.19,0.13-0.39,0.24-0.6,0.34c-1.54,0.7-3.34,0.56-4.84,1.35c-0.41,0.01-0.82,0.04-1.24,0.09c-1.04,0.13-2.09,0.28-3.13,0.23
			c-3.08-0.17-6.17-0.24-9.17-1.08c-0.59-0.17-1.21-0.27-1.82-0.33c-0.67-0.06-1.2-0.28-1.63-0.63
			C143.03,190.33,143.26,190.14,143.49,189.95z"/>
		<path class="st0" d="M127.76,260.07c1.52,1.53,3.09,3.02,4.68,4.48c0.86,0.8,1.74,1.57,2.21,2.68c-0.04,0.2-0.12,0.37-0.21,0.52
			c0.91-0.46,1.65-1.23,2.5-1.79c1.34-0.88,2.96-1.13,4.36-1.9c2.28-1.26,3.89-3.16,5.28-5.28c-0.36,0.15-0.73,0.28-1.12,0.38
			c-0.18,0.05-0.37,0.11-0.5,0.23c-1.09,0.99-2.42,1.72-3.21,3.03c-0.22,0.36-0.53,0.66-0.84,1.04c-0.87-0.21-1.7-0.41-2.71-0.65
			c-0.88-1.04-1.57-2.19-2.02-3.5c-1.33-3.87-3.16-7.52-5.28-11.01c-1.92-3.16-2.82-6.7-4.18-10.07c-0.41-1.02-0.7-2.1-1.02-3.16
			c-0.46-1.54-0.88-3.08-1.33-4.62c-0.22-0.77-0.47-1.53-0.73-2.28c-0.14-0.4-4.33-9.82-4.55-10.27l6.16-1.4
			c1.74,0.31,3.43,0.62,5.13,0.9c1.59,0.26,3.13,0.7,4.62,1.33c1.08,0.45,2.17,0.94,3.3,1.2c1.65,0.38,2.78,1.31,3.44,2.82
			c1.69,3.85,4.48,6.78,7.77,9.27c3.05,2.3,6.19,4.5,9.29,6.74c0.6,0.43,1.19,0.88,1.79,1.32c0.84,0.62,1.43,1.39,1.69,2.41
			c2.14-0.39,4.28-0.84,6.41-1.28c2.01-0.42,4.03-0.83,6.05-1.2c0.97-0.18,1.94-0.39,2.89-0.67c0.81-0.25,1.58-0.63,2.39-0.87
			c0.99-0.29,2.03-0.41,3-0.75c0.38-0.13-1.98-4.53-9.4-4.09c-1.99,1.15-2.99,1.07-5.01-0.64c-0.47-0.4-0.97-0.78-1.52-1.04
			c-1.01-0.49-2.11-0.5-2.59,0.8c-0.1,0.27-0.27,0.51-0.46,0.84c-0.72-0.58-1.18-1.24-1.68-1.86c-2.75-3.44-5.46-6.91-8.26-10.31
			c-1.16-1.41-2.42-2.75-3.77-3.99c-1.29-1.18-2.49-2.38-3.41-3.87c-1.89-3.06-4.42-5.45-7.58-7.18c-1.19-0.65-2.35-1.36-3.54-2.03
			c-0.56-0.31-0.96-0.68-1.14-1.36c-0.22-0.88-0.82-1.46-1.76-1.72c-0.58-0.16-1.12-0.5-1.65-0.8c-1.09-0.6-1.95-1.48-2.79-2.38
			c-0.03-0.38-0.02-0.76-0.09-1.12c-0.25-1.18-1.15-1.62-2.21-1.1c-0.38,0.19-0.74,0.42-1.11,0.63c-1.28-0.37-2.23-1.07-2.95-2.15
			c1.38-2.13,2.84-4.12,4.01-6.26c1.17-2.15,1.98-4.49,2.69-7.02c0.98,0.56,1.77,1.1,2.45,1.8c2.55,2.64,5.53,4.74,8.6,6.71
			c1.84,1.18,3.91,1.82,6.05,2.24c0.52,0.1,1,0.1,1.44,0c-0.35-2.82-1-5.59-1.21-8.43c-0.07-0.92,0.38-0.75,0.44-1.66
			c-0.64,0.19-1.67-1.06-2.18-1.73c-0.21-0.28-0.55-0.57-0.88-0.65c-1.32-0.32-2.17-1.38-3.3-1.99c-0.45-0.24-0.78-0.56-0.86-1.12
			c-0.04-0.27-0.23-0.64-0.46-0.75c-1.17-0.58-1.59-1.87-2.58-2.61c-0.1-0.07-0.21-0.17-0.23-0.28c-0.26-1.25-1.3-1.71-2.23-2.31
			c-0.57-0.37-1.06-0.84-1.59-1.26c-0.79-0.63-1.08-1.46-0.98-2.42c1.31-1.03,1.3-1.02,0.65-2.51c-0.14-0.32-0.16-0.7-0.15-1.06
			c0.03-0.8,0.12-1.6,0.17-2.4c0.02-0.37,0.04-0.74,0.01-1.11c-0.07-0.75-0.38-1.05-1.17-1.16c-0.24-0.03-0.48-0.01-0.73-0.02
			c-1.01-1.2-0.85-2.52-0.4-3.92c-0.52-0.32-1.03-0.63-1.5-0.92c-1.22,0.33-1.48,0.35-1.91-0.49c-0.33-0.63-0.82-0.9-1.37-1.19
			c-0.94-0.5-1.96-0.84-3.02-1.03c-1.19-0.22-2.37-0.52-3.56-0.65c-0.85-0.09-1.73-0.04-2.57,0.1c-0.44,0.08-0.93,0.43-1.19,0.8
			c-0.61,0.86-1.38,1.16-2.39,1.07c-0.34-0.03-0.68,0.03-1.02,0.04c-1.23,0.03-2.43,0.41-3.37,1.21c-0.61,0.52-1.1,1-1.39,1.8
			c-0.6,1.64-1.15,3.26-0.98,5.14c-0.5,0.34-1,0.69-1.49,1.03c-1.67,1.16-3.01,2.55-3.38,4.66c-0.06,0.36-0.24,0.7-0.35,1.05
			c-0.5,1.56-0.18,2.05,1.53,2.38c0.17,0.03,0.34,0.09,0.48,0.12c0.18,0.37-0.12,0.48-0.28,0.62c-1.98,1.82-3.54,3.92-4.55,6.45
			c-0.59,1.48-1.42,2.88-2.04,4.35c-0.5,1.19-0.88,2.43-1.28,3.66c-0.27,0.82-0.41,1.68-0.74,2.47c-1.12,2.7-1.66,5.56-2.27,8.39
			c-0.28,1.28-0.13,2.59,0.09,3.87c0.26,1.53,0.37,3.06,0.18,4.61c-0.05,0.38-0.05,0.77,0,1.16c0.13,1.08,0.28,2.16,0.43,3.25
			c0.11,0.8,0.34,1.55,0.91,2.17c0.29,0.32,0.52,0.7,0.7,1.09c0.82,1.86,1.79,3.63,2.88,5.36l11.75,12.11
			c1.41,1.63,2.98,3.14,4.31,4.83c1.48,1.89,2.81,3.91,4.13,5.92c0.36,0.55,0.55,1.25,0.68,1.9c1.11,5.89,4.06,10.81,8,15.22
			C125.95,258.05,126.81,259.11,127.76,260.07z M131.14,159.38c0.38,0.96,0.04,1.66-0.37,2.49
			C130.47,160.91,130.47,160.91,131.14,159.38z"/>
		<path class="st0" d="M164.74,150.57C164.74,150.57,164.74,150.57,164.74,150.57C164.79,150.58,164.82,150.58,164.74,150.57z"/>
		<polygon class="st0" points="158.51,188.47 120.51,198.76 119.3,197.1 157.27,186.93 		"/>
		<path class="st0" d="M335.99,168.45c-0.73,0.98-1.1,1.98-0.64,3.17c1.12,0.39,2.23,0.83,3.38,1.16c1.45,0.42,3.04,0.74,4.53,0.31
			c0.83-0.24,1.54-0.73,2.13-1.36c0.17-0.4,0.44-0.72,0.89-0.96c0.89-0.47,1.55-1.21,2.18-1.98c0.19-0.23,0.41-0.44,0.62-0.66
			c0.52,0.33,0.96,0.62,1.47,0.94c0.57-0.6,1.07-1.13,1.58-1.66c0.54-0.56,1.04-1.17,1.81-1.48c0.09,0.16,2.3-1.74,2.81-2.16
			c0,0,0,0,0,0c-0.07-0.06,0.88-1.25,1.35-1.52c1.06-0.62,2.2-1.1,3.22-1.78c1.89-1.26,3.71-2.64,5.58-3.95
			c0.89-0.62,1.82-1.19,2.82-1.84c0.05,0.33,0.12,0.5,0.1,0.67c-0.1,0.85-0.26,1.7-0.35,2.56c-0.12,1.18-0.44,2.29-1.05,3.32
			c-0.5,0.85-0.88,1.75-0.92,2.78c-0.03,0.67-0.15,1.42-0.7,1.86c-0.08,0.06-0.15,0.13-0.22,0.2c-0.18,0.52-0.38,1.03-0.6,1.52
			c0,0.08-0.01,0.16-0.01,0.24c-0.03,0.01-0.07,0.01-0.11,0.02c-2.47,5.41-7.08,9.52-10.55,14.29c-0.76,1.04-2.24,5.64-3.08,6.41
			c-0.4,0.36-0.64,0.9-0.91,1.39c-0.94,1.74-1.79,3.53-2.81,5.22c-0.5,0.83-0.81,1.66-0.94,2.58c-0.31,2.13-1.08,4.03-2.47,5.69
			c-0.35,0.42-0.79,0.88-0.89,1.38c-0.22,1.14-3.8,5.33-4.27,7.09c-0.47,1.78-1.71,3.29-1.93,5.18c-0.7,0.84-0.84,1.91-1.21,2.89
			c-0.44,1.16-0.88,2.29-1.71,3.27c-0.47,0.55-0.8,1.22-1.37,1.72c-0.68,0.59-0.99,1.41-1.1,2.3c-0.04,0.36-0.04,0.73-0.05,0.9
			c-0.49,0.66-0.87,1.13-1.21,1.64c-0.34,0.51-0.59,1.08-0.95,1.57c-0.87,1.16-1.34,2.35-0.34,3.82c-0.66,0.08-1.23,0.02-1.67,0.23
			c-1.17,0.57-2.21,0.47-3.31-0.19c-1.03-0.62-13.5-3.61-14.19-2.06c-0.77,1.74,2.99,7.62,2.38,9.42c-0.64,1.91-1.35,3.81-2.39,5.54
			c4.88,3.41,9.24,7.52,14.24,10.77c2.58,1.68,5.53,2.7,8.48,3.51c2.95,0.82,5.96,1.41,8.93,2.16c2.76,0.69,5.43,1.59,8.06,2.67
			c1.77,0.73,3.51,1.57,5.33,2.18c1.59,0.53,3.28,0.83,4.93,0.44c2.1-0.49,3.74-1.93,5.2-3.44c1.78-1.85,1.66,6.29,2.94,4.08
			c1.33-2.3,0,0,1.86,1.88c16.45,16.6,19.71-0.03,19.9-0.3c-0.61,0.23-16.92-19.14-17.53-18.91c-0.39,0.15-0.71,0.04-0.99-0.28
			c-0.29-0.33-0.3-0.67-0.11-1.03c0.11-0.22,0.25-0.43,0.42-0.61c0.65-0.67,0.92-1.44,0.72-2.37c-0.17-0.83,0.07-1.58,0.48-2.31
			c0.72-1.3,1.44-2.6,2.12-3.92c0.25-0.49,0.43-1.02,0.63-1.54c0.35-0.92,0.71-1.85,1.03-2.78c0.47-1.4,1.1-2.79,1.33-4.23
			c0.37-2.38,0.46-4.8,0.68-7.2c0.05-0.55,0.16-1.1,0.24-1.65c0.06-0.43,0.19-0.85,0.19-1.28c0.02-2.04,0.11-4.05,0.96-5.98
			c0.29-0.64,0.09-1.49,0.3-2.19c0.22-0.76,0.7-1.43,0.97-2.18c0.54-1.45,0.9-2.97,1.54-4.37c0.42-0.93,0.54-1.86,0.76-2.81
			c0.25-1.06,0.09-2.24,0.81-3.2c0.77-1.03,0.96-2.26,1.11-3.5c0.07-0.61,0.16-1.21,0.26-2.02c0.05-0.02,0.75-4.37,1.33-5.25
			c0.31-0.46-0.02-1.66,0.34-2.07c0.35-0.4,0.67-2.13,1.09-2.47c0.24-0.2,4.37,0.98,4.66,0.88c3.06-1.05,2.29-1.84,3.43-2.27
			c0.27-0.1,0.44-0.43,0.65-0.65c2.26-2.46,4.51-4.92,6.76-7.39c0.46-0.5,0.9-1.03,1.3-1.57c0.63-0.86,1.33-1.61,2.24-2.19
			c1.57-1.01,2.32-2.52,2.53-4.33c0.04-0.37,0.07-0.74,0.07-1.11c0.05-2.86,0.56-5.66,0.94-8.48c0.32-2.33,0.85-4.63,0.83-7
			c-0.01-0.92-0.06-1.86,0.02-2.77c0.18-2.09,0.43-4.18,0.97-6.22c0.64-2.4,0.36-4.64-1.12-6.71c-1.11-1.55-2.13-3.18-3.2-4.77
			c-0.21-0.31-0.47-0.57-0.7-0.86c-0.6-0.78-1.17-1.58-1.79-2.35c-0.81-1.01-0.86-2.2-0.63-3.34c0.26-1.26,0.67-2.49,1.48-3.57
			c1.05-1.39,1.86-2.95,2.31-4.63c0.49-1.79,0.84-3.61,1.21-5.43c0.22-1.11,0.04-2.21-0.27-3.3c-0.71-2.46-2.3-4.34-4-6.15
			c-0.24-0.26-0.6-0.46-0.94-0.54c-3.38-0.81-7.9-0.1-10.13,4.21c-0.97,1.86-2.07,3.66-2.6,5.73c-0.1,0.41-0.32,0.81-0.52,1.19
			c-1.4,2.57-1.98,5.32-1.74,8.24c0.03,0.34-0.02,0.69-0.03,1.11c-0.49,0-0.87,0.07-1.21,0c-1.72-0.37-3.44-0.15-5.17-0.16
			c-0.99-0.01-1.81,0.34-2.49,1.04c-0.86,0.89-1.73,1.77-2.54,2.7c-1.22,1.4-2.39,2.84-3.57,4.27c-0.87,1.05-1.71,2.11-2.58,3.16
			c-0.83,1-1.63,2.03-2.52,2.97c-2.6,2.74-5.3,5.37-8.23,7.76c-0.38,0.31-0.7,0.7-1.03,1.07c-2.15,2.39-4.25,4.83-6.63,7
			c-0.41,0.37-0.79,0.79-1.15,1.21c-1.07,1.28-2.2,2.49-3.6,3.43c-0.33,0.22-0.51,0.67-0.77,1.01c-0.56,0.73-1.1,1.49-1.71,2.17
			c-0.49,0.55-1.1,1-1.64,1.51c-1.05,1-2.2,1.78-3.65,2.06c-0.6,0.11-1.19,0.33-1.76,0.56c-0.5,0.21-1.04,0.43-1.43,0.79
			c-0.61,0.57-1.28,0.95-2.06,1.2C336.84,167.56,336.39,167.92,335.99,168.45z M392.48,179.76c0.74-1.67,1.33-3.28,2.35-4.69
			c0.47-0.64,0.73-1.4,0.69-2.26c-0.03-0.53,0.07-1.14,0.31-1.6c1.19-2.29,1.9-4.84,3.77-6.75c0.34-0.35,0.56-0.81,0.86-1.2
			c0.1-0.13,0.26-0.21,0.48-0.38c0.29,0.59,0.26,1.1,0.14,1.65c-0.15,0.72-0.32,1.45-0.36,2.18c-0.06,0.96-0.37,1.77-0.87,2.59
			c-1.21,2-2.6,3.89-3.64,6c-0.33,0.66-0.71,1.33-1.21,1.85c-0.64,0.68-1.25,1.34-1.62,2.21
			C393.29,179.61,393.06,179.9,392.48,179.76z M354.37,211.59c0.42-0.88,4.12-5.03,4.77-5.64c0.49-0.47,1.01-0.91,1.5-1.37
			c0.76-0.72,1.57-1.39,2.27-2.17c1.36-1.52,2.66-3.08,3.96-4.65c0.38-0.46,0.84-0.72,1.41-0.77c0.43-0.04,0.85-0.05,1.51-0.09
			c0.33,1.52,0.4,2.98,0.11,4.33c-0.38,1.83-0.54,3.66-0.72,5.51c-0.06,0.61-0.22,1.22-0.37,1.81c-0.23,0.85-0.38,1.7-0.04,2.55
			c0.28,0.69,0.14,1.29-0.18,1.95c-0.31,0.66-0.7,1.42-0.63,2.09c0.15,1.55,0.13,3.07-0.06,4.6c-0.01,0.12-0.01,0.26,0.03,0.37
			c0.27,0.73,0.19,1.47,0.07,2.2c-0.17,1.05,0.64,3.8,0.4,4.07c-0.31,0.35-0.47,0.79-0.29,1.2c0.64,1.47,0.47,2.87-0.17,4.29
			c-0.14,0.32-0.05,0.73-0.09,1.1c-0.1,0.77-1.59,2.01-1.44,2.87c0.17,0.98,0.27,1.94-0.3,2.87c-0.29,0.46-0.39,1.04-0.59,1.55
			c-0.07,0.16-0.21,0.29-0.32,0.45c-0.48,0.05-0.93,1.19-0.6,1.67c-0.31,0.82-0.51,1.72-1.36,2.39c-1.31-0.87-2.6-1.69-3.86-2.57
			c-1.22-0.85-2.47-1.57-4.01-1.75c-1.89-0.22-3.78-0.5-5.43-1.59c-0.05-0.03-0.12-0.04-0.17-0.06c-1.15-0.43-2.3-0.87-3.47-1.27
			c-1.23-0.42-2.47-0.78-3.8-0.69c-0.41,0.03-0.83-0.07-1.21-0.11c-0.34-0.71-0.31-1.26,0.19-1.78c0.46-0.49,0.91-1.01,1.3-1.57
			c0.77-1.11,1.59-2.21,2.22-3.4c0.97-1.85,1.6-3.88,2.71-5.68c0.26-0.41,0.42-0.9,0.56-1.37c0.74-2.58,2.35-4.77,3.26-7.27
			c0.08-0.22,0.33-0.37,0.45-0.58C352.62,213.82,353.75,212.91,354.37,211.59z"/>
		<path class="st0" d="M496.7,239.14C496.7,239.14,496.7,239.14,496.7,239.14C496.7,239.14,496.7,239.14,496.7,239.14z"/>
		<path class="st0" d="M448.96,220.79c-1.88,41.12-0.69,76.83,8.92,97.72c-3.21-1.87-4.26-2.71-4.53-3.7
			c-7.46-16.74-8.49-51.56-7.32-92.56C445.84,221.62,449.52,218.95,448.96,220.79z"/>
		<path class="st0" d="M449.03,210.34C449.23,210.33,449.28,210.33,449.03,210.34C449.27,210.42,449.22,210.41,449.03,210.34z"/>
		<path class="st0" d="M379.54,264.06c-0.12,0.65-0.22,1.31-0.26,1.97c-0.12,1.85,0.3,3.63,1.35,5.25c0.65,1,1.48,1.9,2.37,2.73
			c1.17,1.09,2.39,2.13,3.66,3.11c2.74,2.12,5.69,3.98,8.69,5.74c1.47,0.87,2.96,1.71,4.45,2.55c0.73,0.41,1.46,0.83,2.19,1.24
			c0.66,0.38,1.28,0.78,1.91,1.21c2.61,1.82,5.19,3.69,8,5.24c1.46,0.81,2.97,1.53,4.56,2.07c1.51,0.51,3.04,0.79,4.62,0.95
			c2.02,0.21,4.3,0.12,5.8-1.27c1.28-1.19-0.36-5.84-1.33-5.8c-0.99,0.04-1.7-0.37-2.3-1.05c0-0.21-0.03-0.39,0-0.56
			c0.16-0.8,0.52-1.57,0.03-2.43c-0.11-0.19,0.04-0.6,0.2-0.82c0.63-0.85,0.81-1.81,0.77-2.82c0.85-0.51,1.71-0.86,2.23-1.66
			c1.05-1.6,2.05-3.21,2.83-4.95c1.65-3.68,3.26-7.38,4.99-11.03c1.63-3.42,2.61-6.99,2.98-10.74c0.27-2.72,0.9-5.36,1.62-7.98
			c0.16-0.57,0.34-1.14,0.61-1.67c2.18-4.22,3.38-7.35,5.95-11.4c1.25-1.97,2.58-3.85,4.45-5.36c1.84-1.48,3.21-4.16,3.43-6.44
			c0.1-0.99,0.07-2.02,0.85-2.84c0.18-0.19,0.28-0.58,0.2-0.82c-0.56-1.62,0.02-3.18,0-4.77c-0.01-1.21,0.34-2.31,1.19-3.26
			c0.35-0.4,0.57-0.91,0.82-1.38c1.42-2.75,2.82-5.5,4.23-8.25c0.65-1.26,1.31-2.52,1.97-3.77c0.38-0.73,1.1-1.02,1.87-1.32
			c0.22,0.99,0.23,0.99,0.03,1.28c-0.17,0.25-0.43,0.45-0.52,0.72c-0.08,0.26-0.05,0.59,0.04,0.85c0.06,0.18,0.32,0.3,0.51,0.47
			c0.68-0.6,1.05-1.39,1.95-1.58c0,0,0,0,0,0.01c0,0,0.01,0,0.01-0.01c0.03-0.01,0.05-0.01,0.08-0.02
			c-0.01-0.01-0.01-0.02-0.02-0.02c0.24-0.16,0.58-0.31,0.6-0.5c0.04-0.49-0.1-1.01-0.19-1.62c0.62-0.07,0.47-0.97,1.33-1.01
			c0.7-0.02,0.51-0.84,0.85-1.24c0.36-0.42,0.54-0.98,0.77-1.44c0.96,0.13,0.25,0.9,0.7,1.34c0.61-1.15,0.23-2.34,0.5-3.22
			c0.24-0.46,0.83,0.03,0.88-0.59c0.03-0.38,0.37-0.72,0.53-1.09c0.15-0.35-0.21-0.86,0.45-1.1c0.58,0.18,0.87-0.52,1.21,0.28
			l0.73,0.09c-0.04-0.46,0.55-0.4,0.52-0.95c0.74-0.14,1.55,0.08,2.16-0.52c-0.23-0.32-0.47-0.66-0.73-1.02
			c0.28-0.14,0.54-0.26,0.8-0.38c0.04-0.83,0.59-3.03-0.27-3.69c-0.32-0.24-0.17-0.67,0.21-0.89c0.36-0.21,0.75-0.37,1.19-0.59
			c-0.22-0.47-0.42-0.9-0.62-1.33c0.22-0.09,0.58-0.13,0.63-0.27c0.21-0.65,0.52-1.27,0.29-2.03c-0.26-0.86-0.46-1.76-0.5-2.64
			c-0.04-0.8-0.23-1.52-0.61-2.23c-0.03-0.06,0.08-0.19,0.17-0.4c0.58,0.35-0.33-0.12,0.29,0.26c0.1-0.4-0.21-0.83,0.16-1.14
			c0.34,0.08,0.72,0.09,0.9-0.3c-1.19-1.23,0.41-1.15-0.2-2.8c-0.08-0.22-0.2-0.46-0.38-0.62c-0.61-0.54-0.78-1.23-0.95-1.93
			c-0.25-1-0.64-1.91-1.42-2.72c-0.45-0.47-0.7-1.13-0.98-1.73c-0.43-0.94-0.81-1.89-0.81-2.94c0-0.29-0.11-0.59-0.25-0.86
			c-1.27-2.51-2.98-4.65-5.72-5.93c-0.69-0.32-1.34-0.72-2.06-0.99c-1.96-0.72-3.91-1.27-5.65,0.35c-0.29,0.27-0.75,0.4-1.16,0.52
			c-0.42,0.12-0.87,0.14-1.3,0.22c-0.77,0.13-1.21,0.57-1.31,1.3c-0.02,0.18-0.01,0.36-0.02,0.53c-0.06,0.85-1.49,3.18-1.51,3.82
			c-0.02,0.78-0.05,1.42-0.62,1.95c-1.73,1.62-0.97,1.73-1.02,2.78c-0.05,0.99-0.19,1.99-0.67,2.92c-0.62,1.18-0.4,1.66,0.84,2.31
			c0.22,0.12,0.46,0.24,0.7,0.3c0.97,0.24,1.32,0.92,1.41,1.75c0.12,1.17,0.19,2.35,0.28,3.51c-0.22,0.04-0.35,0.1-0.47,0.08
			c-0.89-0.08-1.77-0.18-2.66-0.25c-2.62-0.21-4.68,0.78-5.6,2.99c-0.62,1.49-1.95,3.82-3.51,4.34c-0.53,0.18-1.03,0.43-1.54,0.66
			c-0.62,0.29-1.24,0.56-1.83,0.9c-1.69,0.98-2.46,2.43-2.29,4.33c0.03,0.36,0.1,0.71,0.14,1.07c0.18,1.51,0.07,3.02-0.74,4.31
			c-1.18,1.91-1.36,4.01-1.41,6.15c0,0.18-0.04,0.35-0.04,0.43c-1.14,1.36-2.25,2.62-3.29,3.93c-2.38,3-4.63,6.11-7.44,8.78
			c-0.48,0.45-0.85,1.01-1.26,1.52c-0.49,0.6-1.02,1.18-1.46,1.82c-0.36,0.51-1.89,2.31-2.15,2.9c-0.02,0.05-0.06,0.1-0.1,0.15
			c-0.99,1.12-1.93,2.3-3.01,3.34c-0.53,0.52-1,1.01-1.28,1.69c-0.55,1.33-1.34,2.51-2.42,3.52c-1.02,0.95-1.98,1.94-2.94,2.94
			c-1.45,1.51-4.24,3.61-4.42,3.77c-0.41,0.36-0.9,0.66-1.22,1.08c-0.31,0.41-1.21,1.47-1.37,1.51c-0.42,0.95-0.61,2.57-1.02,2.56
			c0.06,1.5,0.06,1.5-0.57,2.14c0.11,0.95,0.41,1.98-0.67,2.66c-0.04,0.02-0.04,0.11-0.04,0.17c-0.19,1.66-1.01,3.13-1.51,4.7
			c-1.05,3.27-2.18,6.51-3.13,9.81c-0.31,1.08-0.85,3.91-1.05,4.12c-0.51,0.51-1.08,0.97-1.59,1.48c-0.53,0.54-0.86,1.13-0.51,1.93
			c0.11,0.25,0.11,0.64-0.03,0.85c-0.53,0.84-1.67,2.62-2.76,3.29c-0.28-0.1-2.72-0.24-3.21,0.4c-1.48,0.12-2.9,0.23-4.32,0.34
			c0,0,0-0.01,0-0.01c-0.47-0.18-0.94-0.35-1.38-0.52c-0.24,0.3-0.44,0.55-0.63,0.8C380.88,265.35,380.13,264.8,379.54,264.06
			C379.54,264.07,379.54,264.07,379.54,264.06z M427.34,293.39c0.03-0.01,0.12,0.15,0.23,0.29c-0.16,0.07-0.3,0.15-0.46,0.17
			c-0.04,0.01-0.13-0.15-0.19-0.24C427.05,293.53,427.19,293.44,427.34,293.39z M423.61,294.77c0.09-0.03,0.23-0.01,0.31,0.05
			c0.05,0.03,0.01,0.17,0.02,0.3c-0.17-0.04-0.32-0.08-0.47-0.12C423.52,294.93,423.54,294.8,423.61,294.77z M478.15,176.01
			c-0.02,0.13-0.03,0.27-0.05,0.4c-0.01,0-0.03,0-0.04-0.01C478.09,176.28,478.11,176.15,478.15,176.01
			C478.14,176.02,478.15,176.02,478.15,176.01z M478.64,167.51c0.03-0.02,0.06-0.04,0.1-0.06
			C478.92,167.52,478.79,167.52,478.64,167.51z M466.56,195.09c-0.02,0.11-0.04,0.21-0.06,0.32c-0.07-0.09-0.14-0.18-0.2-0.26
			C466.39,195.12,466.47,195.1,466.56,195.09z M444.13,181.28c0.01,0.03,0.02,0.07,0.01,0.1c-0.02,0.04-0.06,0.08-0.09,0.11
			c0-0.03-0.02-0.07-0.01-0.1C444.07,181.35,444.1,181.32,444.13,181.28z M399.15,268.09c0-0.16,0.09-0.36,0.21-0.47
			c1.06-0.98,1.4-2.33,1.98-3.56c0.4-0.86,0.84-1.7,1.26-2.55c0.08-0.16,0.18-0.31,0.25-0.47c0.94-2.11,1.87-4.22,2.82-6.32
			c0.37-0.81,0.73-1.63,1.2-2.38c1.4-2.24,2.42-4.63,3.12-7.15c0.49-1.77,1.06-3.51,1.5-5.29c0.33-1.34,1.15-2.34,2.19-3.19
			c2.08-1.68,3.91-1.85,6.31-3.15c3.4-1.85,6.68-3.9,10.01-5.86c0.35-0.2,0.74-0.35,1.3-0.6c0.01,0.53,0.09,0.87,0.02,1.18
			c-0.38,1.67-0.85,3.33-1.2,5c-0.38,1.79-0.65,3.61-1,5.41c-0.25,1.28-0.21,1.17-0.49,2.44c-0.28,1.27-0.64,2.52-0.82,3.81
			c-0.13,0.99-0.04,2.01-0.01,3.02c0.01,0.21,0.17,0.45,0.32,0.62c0.19,0.21,0.29,0.41,0.08,0.61c-0.34,0.31-0.21,0.62-0.1,0.98
			c0.37,1.18,0.39,2.33-0.12,3.47c-0.28,0.63-0.48,1.28-0.42,2.04c0.05,0.68-0.21,1.4-0.43,2.07c-0.56,1.69-1.13,3.37-1.76,5.03
			c-0.74,1.94-1.57,3.84-2.31,5.77c-0.21,0.54-0.28,1.14-0.33,1.72c-0.05,0.61-0.14,1.17-0.65,1.6c-0.43,0.37-0.6,0.87-0.69,1.41
			c-0.09,0.58-1.22,1.5-1.44,1.41c-0.36-0.13-0.9,0.88-0.75,1.07c0.28,0.36-0.83,0.66-1.24,2.83c-0.58,0.43-1.21,0.9-1.84,1.36
			c-0.03,0.02-1.7,0.33-2.06,0.54c-0.1,0.06-0.25,0.06-0.37,0.05c-1.33-0.09-2.47,0.34-3.58,1.04c-0.72-0.49-1.48-0.71-2.34-0.54
			c-0.3,0.06-0.63,0.01-0.95-0.02c-1.13-0.09-2.26-0.19-3.38-0.29c-0.91-0.85-1.84-1.75-2.82-2.6c-0.27-0.23-0.67-0.34-1.02-0.49
			c-0.35-0.15-0.72-0.25-1.05-0.44c-0.32-0.19-0.6-0.45-0.93-0.71c0.04-0.9,0.18-1.75,0.49-2.59c0.25-0.66,0.42-1.36,0.6-2.04
			c0.08-0.28,0.23-0.64,0.11-0.86C398.28,269.93,399.12,269.07,399.15,268.09z M384.22,265.59c0.07,0.06,0.07,0.19,0.1,0.28
			c-0.05,0-0.12,0.03-0.16,0c-0.05-0.02-0.08-0.08-0.1-0.13c-0.03-0.09-0.06-0.19-0.08-0.29
			C384.06,265.49,384.16,265.53,384.22,265.59z"/>
		<path class="st0" d="M451.92,168.81c-0.75-0.21-1.46-0.12-2.12,0.28c-0.84,0.5-1.69,1-2.5,1.55c-1.22,0.82-2.75,3.06-3.95,3.92
			c-0.88,0.63-1.75,1.27-2.63,1.89c-0.84,0.6-1.66,1.22-2.54,1.76c-2.56,1.56-5.17,3.02-7.9,4.26c-0.35,0.16-0.68,0.39-1,0.61
			c-2.14,1.39-4.25,2.83-6.52,4c-0.39,0.2-0.77,0.44-1.13,0.69c-1.09,0.76-2.2,1.46-3.46,1.89c-0.3,0.1-0.53,0.41-0.8,0.62
			c-0.58,0.44-0.81-0.46-1.42-0.06c-0.49,0.32-1.05,0.54-1.56,0.82c-1.01,0.55-2.05,0.91-3.22,0.82c-0.48-0.04-0.98,0-1.46,0.07
			c-0.43,0.06-0.89,0.12-1.26,0.31c-0.58,0.31-1.17,0.47-1.82,0.49c-0.5,0.02-0.93,0.2-1.33,0.53c-0.76,0.61-1.25,1.3-1.14,2.3
			c0.78,0.54,1.54,1.1,2.35,1.59c1.02,0.63,2.18,1.2,3.4,1.18c0.69-0.01,1.33-0.24,1.91-0.6c0.22-0.27,0.48-0.46,0.88-0.55
			c0.78-0.18,1.44-0.61,2.08-1.07c0.19-0.14,0.4-0.25,0.61-0.38c0.33,0.36,1.64,1.76,2.14,1.46c0.53-0.31,1.04-0.69,1.69-0.76
			c0.04,0.14,2.12-0.86,2.59-1.07c0,0,0,0,0,0c-0.04-0.06,0.93-0.78,1.34-0.89c0.94-0.26,1.91-0.39,2.83-0.7
			c1.71-0.58,3.38-1.26,5.08-1.87c0.81-0.29,7.59-1.93,7.73-1.93"/>
		<path class="st0" d="M467.21,175.98l-5.08,10.53l-0.78,8.73l-0.99,10.72l-9.44,7.11l-0.39,6.02c0.19-0.11,0.58-0.71,0.75-0.83
			c0.94-0.69,3.68,0.08,4.85-0.33c0.2-0.07,0.35-0.25,0.52-0.38c1.83-1.46,3.65-2.92,5.47-4.39c0.37-0.3,0.73-0.61,1.06-0.95
			c0.52-0.52,1.09-0.97,1.8-1.28c1.23-0.54,1.88-1.5,2.15-2.71c0.06-0.25,0.1-0.5,0.13-0.75c0.22-1.93,0.78-3.79,1.25-5.67
			c0.38-1.55,0.93-3.06,1.07-4.67c0.05-0.63,0.08-1.26,0.2-1.88c0.27-1.4,0.59-2.79,1.12-4.13c0.63-1.57,0.57-3.12-0.39-4.66
			c-0.72-1.16-1.36-2.36-2.05-3.53c-0.13-0.23-0.31-0.43-0.46-0.65c-0.39-0.58-1.33-4.7-1.08-5.46L467.21,175.98z"/>
		<path class="st0" d="M302.67,157.07c18,6.35,93.49,32.56,104.63,34.8c13.82,5.25,24.02,16.53,45.81,20.97l-0.47,3.63
			c-21.83-4.6-32.33-17.1-44.57-21.67c-12.15-2.76-86.84-28.47-104.8-35.2L302.67,157.07z"/>
		<path class="st0" d="M92.96,210.96c0,0-12.45,55.32-15.12,61.43c-6.47,14.76-20.16,33.26-22.81,33.08
			c-2.66-0.18,3.41,0.23,3.41,0.23s10.01-8.32,21.42-33.18c1.13-2.46,16.06-65.05,16.06-65.05"/>
		<path class="st0" d="M318.74,230.55c-0.13-0.88-0.7-1.74-1.18-2.6c-0.11-0.16-0.74-1.26-0.72-1.28c-0.19-0.43-0.33-0.87-0.37-1.32
			c-0.03-0.29,0-0.57,0.07-0.83c-0.04,0.02,0.44-2.51,0.65-3.67c0.23-1.27-1.12-3.8-0.95-4.06c-0.06,0,0.05-5.73-0.02-8.6
			c-0.03-1.38-0.48-2.77-0.75-4.15c-0.21-1.09-0.42-2.19-0.7-3.27c-0.08-0.3-1.94-4.85-1.94-4.85c-0.38-0.26-0.61-3.15-1.54-4.33
			c-0.37-0.47-0.4-1.13-0.62-1.69c-0.11-0.28-1.23-2.91-1.23-2.91c-0.1-0.07-0.71-2.48-0.83-3.15c0.05-2.52,0.09-4.65,0.13-6.79
			c0.07,0,0.25-1.22,0.41-1.52l-0.37-6.79c0.06,0,0.13,0,0.19,0c0-0.49,0-0.99-0.01-1.48c-0.38-0.07-0.76-0.14-1.14-0.2
			c-2.51-0.42-5.03-0.76-7.56-1.01c-2.57-0.26-5.14-0.43-7.71-0.5c-2.5-0.07-5-0.04-7.47,0.12c-1.73,0.11-3.45,0.29-5.14,0.56
			c2.31,0.58,3.79,0.95,3.79,0.95s4.68,3.63,4.5,4.02c0.81,0.97,1.7,2.02,2.56,3.08c0.22,0.27,0.41,0.56,0.55,0.86
			c0.65,1.39,1.29,2.79,1.92,4.19c0.01,0.02,0.03,0.04,0.03,0.06c0.66,1.97,1.21,3.97,2,5.9c0.99,2.45,1.98,4.94,3.32,7.26
			c1.38,2.38,2.62,4.75,3.26,7.34c0.64,2.56,1.15,5.18,2.23,7.63c1.37,3.08,1.45,6.29,2.44,9.39c0.17,0.53-0.05,1.14,0,1.71
			c0.16,1.84,0.35,3.68,0.55,5.62c0.39,0.09,0.88,0.21,1.42,0.34c-0.25,0.59-0.71,3.19-1.31,3.73c-0.07,0.24-0.15,0.47-0.24,0.71
			c0.01,0.07-0.07,0.28-0.12,0.31c-0.26,0.63-0.57,1.24-0.95,1.82c-0.74,1.13-1.7,2.23-2.01,3.55c-0.04,0.16-0.06,0.33-0.07,0.49
			c0,0,0.21,1.23,0.31,1.43c0.23,0.44,0.57,0.86,0.95,1.23c0.36,0.07,1.46,0.52,1.56,0.43c1.31,0.25,2.53,0.48,3.74,0.71l0.49,0.11
			c0.1-0.03,0.75-0.39,0.83-0.27c1.06-0.39,2.03-0.94,2.92-1.57c0.95-0.67,1.81-1.45,2.54-2.31c0.64-0.75,1.2-1.57,1.54-2.48
			c0.07-0.19,0.25-0.67,0.31-0.67C318.86,231.4,318.8,230.99,318.74,230.55z"/>
		<path class="st0" d="M292.83,175.48c1.95-1.04,0.46-2.17,2.53-2.94c2.31-0.87-0.78-1.5,1.61-2.13c2.45-0.64,4.94-1.18,7.44-1.62
			c2.42-0.43-3.06,4.02-0.62,3.77c0.07-0.01,3.35,4.37,3.42,4.37c-0.24-1.01,1.5-4.48,2.01-6.54c0.05-0.01-1.02-3.83-0.97-3.84
			c-0.09-0.28,2.56-1.7,2.8-2.7c0.27-1.1-0.75-2.15-1.13-3.22c-0.34-0.95-0.74-1.88-1.02-2.84c-0.46-1.59-2.89-6.19-2.89-6.19
			c-0.12-0.5-0.24-1-0.29-1.51c-0.03-0.33-0.05-0.69,0.04-1.01c0.01-0.95,0.09-3.26-0.04-3.44c1.51-1.87,3.47-3.42,3.25-6.26
			c-0.19-2.47-0.48-4.82-1.77-6.51c-0.46-1.4-0.78-2.46-1.16-3.5c-0.63-1.72-1.33-3.41-1.93-5.14c-0.36-1.05-0.53-2.17-0.9-3.22
			c-0.31-0.9-0.77-1.74-1.18-2.6c-0.09-0.2-0.22-0.4-0.37-0.54c-0.91-0.86-1.83-1.7-2.57-2.39c0.05,0.01,0.16,0.04,0.27,0.06
			c0.03-0.07-4.31-2.53-4.28-2.58c-0.63-0.2-1.26-0.39-1.89-0.59c0,0,0,0,0,0c-0.25-0.12-0.49-0.32-0.75-0.35
			c-1.32-0.12-2.64-0.2-3.95-0.29c-0.04-0.36-0.08-0.63-0.11-0.95c0.4,0.01,0.22-3.73-0.15-3.69c-0.34,0.04-1.87,0.22-2.1,0.03
			c0.99-1.3,1.48-6.14,1.66-7.12c0.18-0.97,1.36-3.3-0.64-6.28c-3.27-6.39-14.37-3.36-14.37-3.36c-1.92,0.04-6.36,6.87-5.03,8.14
			c0.39,0.38,0.31,2.73,0.41,2.8c-0.14,1.06-0.79,3.24-0.63,3.53c0.18,0.12,1.02,0.56,1.18,0.58c-0.04-0.33,0.46,2.44,0.32,3.54
			c-0.08,0.58,0.47,1.51,1.01,1.84c0.74,0.46,1.73,0.65,2.63,0.69c1.46,0.08,1.2,0.39,1.47,1.89c-0.87,0.42-2.68-0.02-3.46,1.04
			c-0.58,0.8-1.8,1.18-0.9,2.53c0.53,0.35-0.65-0.27-0.07,0.16c-1,0.67-1.96,1.31-3.08,2.06c0.46,0.2,0.71,0.33,0.97,0.43
			c2.09,0.8,3.06,1.15,3.57,1.38c0.51,0.24,0.88,0.77,1.11,0.98c-0.77,1.43-1.56,2.49-1.94,3.69c-0.61,1.93,0.2,3.99-0.43,5.91
			c2.71-8.18,3.7,10.86,0.01,4.95c0.28,0.45,0.46,1.01,0.55,1.54c0.41,2.44,0.76,4.89,1.16,7.46c-0.15,0.55,0.94,6.18,1.12,6.29
			c1.81,8.71-5.37,8.08-5.18,8.49c-0.83,0.19-1.52,0.35-2.29,0.53c0.18,0.23-6.42,1.25-6.43,1.27c-1.16,0.22-2.11,0.4-3.07,0.6
			c-1.28,0.28-2.55,0.76-3.84,0.83c-3.01,0.18-4.32,1.15-4.84,4.12c-0.4,2.31-1,4.55-0.89,6.98c0.12,2.58-0.41,5.18-0.69,7.78
			c-0.1,0.89-0.33,5.66-0.74,7.11c0.24,3.55-0.26,7.04-0.81,10.54c-0.06,0.37,0.16,0.79,0.28,1.3c-0.14,0.39-0.33,0.92-0.61,1.68
			c-0.17-0.28-0.3-0.58-0.46-0.86c-0.25,0.15-0.51,0.28-0.77,0.4c0.04,0.04,0.07,0.08,0.11,0.12c-0.13,0.01-0.23,0-0.32-0.03
			c-0.21,0.09-0.43,0.17-0.64,0.25c0.04,0.04,0.08,0.07,0.12,0.11c-0.98,1.56-2.73,0.63-4,1.25c0.04,0.15,0.09,0.33,0.15,0.57
			c-1.32,0-2.61,0-3.92,0c-0.07,0.02-0.14,0.03-0.22,0.05c-0.75,0.14-1.51,0.2-2.28,0.24c-0.2,0.21-0.4,0.43-0.62,0.66
			c0.05-0.32,0.08-0.49,0.1-0.63c-0.39,0.02-0.79,0.04-1.18,0.07c-0.61,0.04-1.24,0.1-1.85,0.21c-0.09,0.15-0.17,0.3-0.24,0.46
			c-0.29,0.7-0.36,1.49-0.25,2.25c0.25,0.15,0.54,0.32,0.93,0.55c-0.03,0.02-0.06,0.04-0.09,0.06c2.75,1.19,5.26,3.08,8.22,3.71
			c0.63-0.13,1.25-0.32,1.88-0.42c0.47-0.08,0.98-0.16,1.43-0.07c1.42,0.28,2.83,0.6,4.26,0.92c0.61-0.02,1.23-0.04,1.84-0.1
			c0.17-0.02,0.33-0.04,0.5-0.06c-0.07-0.06-0.15-0.11-0.23-0.17c0.98-0.22,1.94-0.44,2.52-0.57c0.02,0.03,0.05,0.06,0.07,0.08
			c0.65-0.31,1.24-0.73,1.72-1.31c0.75-0.9,1.14-2.04,1.37-3.18l-0.03,0.01c0.1-1.07,0.14-2.14,0.33-3.19
			c0.13-0.73,0.49-1.41,0.72-2.12c0.67-2.05,1.39-4.09,1.97-6.16c0.28-1.02,0.25-2.12,0.46-3.16c0.77-3.67,1.65-7.33,2.38-11.01
			c0.25-1.29,0.71-5.18,0.58-5.32c0.13-0.51,0.25-1,0.32-1.29C263.29,175.59,285.75,175.58,292.83,175.48z M229.45,207.43
			c-0.05-0.05-0.09-0.09-0.14-0.14l0.51-0.52l0.15,0.12C229.79,207.07,229.62,207.25,229.45,207.43z M236.79,212.05
			c-0.01-0.07-0.03-0.15-0.04-0.22c0.3-0.04,0.59-0.07,0.89-0.11c0.01,0.06,0.03,0.11,0.04,0.17
			C237.37,211.94,237.08,212,236.79,212.05z M247.75,211.3c-0.02-0.05-0.04-0.1-0.07-0.14l0.35-0.12c0.01,0.03,0.03,0.05,0.04,0.08
			C247.96,211.18,247.86,211.24,247.75,211.3z M250.62,193.89c-0.02-0.03-0.03-0.06-0.05-0.09c0.1-0.06,0.21-0.12,0.31-0.18
			c0.02,0.03,0.04,0.07,0.06,0.1C250.83,193.77,250.72,193.83,250.62,193.89z"/>
		<path class="st0" d="M71.58,191.62c0.19-0.27,0.48-0.52,0.78-0.63c1.07-0.39,1.14-2.3,1.24-2.46c0.61-1,1.25-1.98,1.88-2.95
			c0.72,0.4,0.83,0.83,0.53,1.37c-0.8,1.42-0.97,3.16-2.17,4.39c-0.2,0.21-1.33,5.97-1.82,8.53c-0.08,0.44-3.25,4.7-4.64,6.43
			c-0.93,1.15,0.13,2.73,0.56,2.16c1.33-1.77,4.21-5.42,4.39-5.48c0.4,0.79,0.35,1.43-0.17,2.16c-0.5,0.7-0.85,1.52-1.16,2.33
			c-0.19,0.5-0.23,1.08,0.42,1.41c0.52-0.6-0.16-1.6,0.98-1.98c0.2,1.7,1.05,3.09,2.21,4.27c1.19,1.21,2.29,2.59,3.71,3.44
			c1.36,0.83,3.07,1.09,4.69,1.62c-0.01,0.19,0.94,0.06,1.63,0.69c0.7-0.43,1.34-0.94,1.94-1.48c0.74-0.68,1.45-1.42,2.07-2.22
			c0.75-0.96,1.3-2.08,1.83-3.16c0.93-1.89,1.69-3.96,3.21-5.48c1.33-1.33,3.05-2.13,4.67-3.03c1.86-1.05,3.54-2.25,4.46-4.24
			c0.42-0.92,0.71-1.9,1.02-2.86c0.4-1.23,0.85-2.44,1.34-3.64c0.96-2.33,2.17-4.55,3.1-6.88c0.87-2.16,1.55-4.42,1.72-6.75
			c0.17-2.24-0.19-4.44-1.2-6.45c-0.86-1.71-2.05-3.23-3.17-4.77c-0.84-0.46-3.87-2.11-4.6-2.58c-1.49-0.96-2.88-1.08-4.29,0.22
			c-0.62,0.58-0.97,0.44-1.5-0.27c-1.05-1.42-2.09-1.39-3.12,0.01c-0.76,1.04-1.55,2.06-2.81,2.55c-0.87,0.34-1,1.01-1.01,1.87
			c-0.01,1.88-0.99,3.08-2.78,3.61c-0.2,0.06-0.4,0.09-0.6,0.15c-1.67,0.5-2.32,1.75-1.71,3.58c-0.89,0.73-3.47,2.68-3.76,2.62
			c-1.02-0.21-1.56,0.23-2.13,1.04c-0.43,0.61-0.82,2.43-0.99,2.67c-0.28,0.42-2.28,3.53-3.19,4.47c-1.2,1.24-3,4.95-3.45,5.69
			C69.5,191.88,71.02,192.42,71.58,191.62z"/>
	</g>
	<path class="st1" d="M17.99,238.72c-26.28,147.6,72.45,289.06,220.06,315.35c147.63,26.29,289.14-72.39,315.42-219.99
		c26.29-147.63-72.46-289.12-220.08-315.41C185.78-7.63,44.28,91.09,17.99,238.72z M537.98,331.31
		C513.23,470.34,379.91,563.4,240.8,538.63C101.7,513.86,8.69,380.5,33.45,241.47C58.21,102.41,191.54,9.37,330.63,34.14
		C469.75,58.91,562.75,192.25,537.98,331.31z"/>
	<g>
		<path class="st2" d="M120.24,399.42l-3.59-49.94l6.52,1.16l1.35,25.18c0.35,6.21,0.57,12.39,0.59,17.15l0.14,0.02
			c1.63-4.61,4.13-10.01,6.86-15.89l10.68-22.96l6.45,1.15l1.48,25.28c0.33,5.91,0.6,11.81,0.41,16.97l0.14,0.03
			c1.93-5.07,4.23-10.14,6.78-15.83l10.61-22.97l6.31,1.13l-22.07,45.36l-6.45-1.15l-1.58-25.96c-0.4-6.36-0.56-11.22-0.33-16.15
			l-0.14-0.03c-1.7,4.6-3.6,9.09-6.47,14.94l-11.25,23.67L120.24,399.42z"/>
		<path class="st2" d="M188.85,411.67l0.28-4.41l-0.21-0.04c-2.4,2.35-6.51,4.1-11.4,3.23c-6.95-1.24-9.62-6.76-8.73-11.73
			c1.48-8.29,9.66-11.51,22.91-9.08l0.13-0.71c0.51-2.84,0.64-8.08-6.38-9.33c-3.19-0.57-6.7-0.17-9.39,0.96l-0.68-4.36
			c3.16-1.34,7.49-1.81,11.81-1.04c10.49,1.87,11.76,9.49,10.54,16.37l-2.29,12.83c-0.53,2.98-0.91,5.91-0.9,8.32L188.85,411.67z
			 M191.06,394c-6.78-1.36-14.72-1.53-15.91,5.13c-0.72,4.04,1.63,6.44,4.82,7c4.47,0.8,7.81-1.53,9.32-4.26
			c0.33-0.6,0.6-1.28,0.71-1.92L191.06,394z"/>
		<path class="st2" d="M208.49,389.36c0.63-3.54,1.08-6.46,1.37-9.34l5.53,0.99l-0.66,5.73l0.14,0.03
			c2.28-2.96,6.82-5.44,12.49-4.43c4.75,0.85,11.62,5,9.51,16.77l-3.66,20.49l-6.24-1.11l3.53-19.78c0.99-5.53-0.25-10.5-6.13-11.55
			c-4.11-0.73-7.82,1.6-9.5,4.89c-0.42,0.73-0.75,1.77-0.94,2.83l-3.68,20.63l-6.24-1.11L208.49,389.36z"/>
		<path class="st2" d="M281.97,376.37l-7.4,41.47c-0.54,3.05-1.09,6.53-1.3,8.91l-5.6-1l0.78-6l-0.14-0.03
			c-2.6,3.49-7.3,5.65-12.9,4.65c-8.29-1.48-13.42-9.64-11.56-20.06c1.97-11.42,10.31-17.18,18.67-15.68
			c5.25,0.94,8.35,4.05,9.41,7.09l0.14,0.03l3.66-20.49L281.97,376.37z M270.38,405.24c0.14-0.78,0.26-1.86,0.18-2.67
			c-0.21-4.13-3.03-8-7.71-8.84c-6.45-1.15-11.29,3.84-12.65,11.42c-1.24,6.95,1.14,13.3,7.87,14.5c4.18,0.75,8.5-1.33,10.47-5.81
			c0.36-0.81,0.59-1.65,0.76-2.64L270.38,405.24z"/>
		<path class="st2" d="M289.66,413.14c-1.37,8.46,3.4,12.9,9.64,14.01c4.47,0.8,7.3,0.5,9.81-0.08l0.27,4.66
			c-2.38,0.6-6.33,1.06-11.79,0.09c-10.56-1.89-15.63-9.96-13.78-20.31c1.85-10.35,9.4-17.41,19.39-15.63
			c11.2,2,12.42,12.38,11.29,18.69c-0.23,1.28-0.55,2.24-0.73,2.87L289.66,413.14z M308.75,411.94c0.78-3.96,0.18-10.43-6.84-11.68
			c-6.31-1.13-10.11,4.19-11.38,8.43L308.75,411.94z"/>
		<path class="st2" d="M323.06,411.28c0.72-4.04,1.27-7.53,1.63-10.75l5.46,0.97l-0.99,6.77l0.28,0.05
			c2.38-4.33,6.66-6.57,10.84-5.82c0.71,0.13,1.19,0.29,1.73,0.53l-1.05,5.88c-0.61-0.26-1.24-0.44-2.09-0.59
			c-4.39-0.79-8.11,1.99-9.8,6.52c-0.29,0.83-0.61,1.79-0.8,2.86l-3.27,18.29l-6.17-1.1L323.06,411.28z"/>
		<path class="st2" d="M347.64,423.5c-1.36,8.46,3.4,12.9,9.64,14.01c4.47,0.8,7.3,0.5,9.82-0.08l0.27,4.66
			c-2.38,0.6-6.33,1.06-11.79,0.09c-10.56-1.89-15.63-9.96-13.78-20.31c1.85-10.35,9.4-17.41,19.39-15.63
			c11.2,2,12.42,12.38,11.29,18.69c-0.23,1.28-0.55,2.24-0.73,2.87L347.64,423.5z M366.73,422.3c0.78-3.96,0.18-10.43-6.84-11.68
			c-6.31-1.13-10.11,4.19-11.38,8.43L366.73,422.3z"/>
		<path class="st2" d="M381.03,421.63c0.72-4.04,1.27-7.53,1.63-10.75l5.46,0.97l-0.99,6.77l0.28,0.05
			c2.38-4.33,6.66-6.56,10.84-5.82c0.71,0.13,1.19,0.29,1.73,0.53l-1.05,5.88c-0.61-0.26-1.24-0.44-2.09-0.59
			c-4.39-0.78-8.11,1.99-9.8,6.52c-0.29,0.83-0.61,1.79-0.8,2.86l-3.27,18.29l-6.17-1.1L381.03,421.63z"/>
		<path class="st2" d="M422.69,412.83c-1.03,5.74-6.3,8.68-11.2,7.8c-5.53-0.99-8.54-5.84-7.65-10.8c0.9-5.47,5.89-8.82,11.14-7.89
			C420.79,402.99,423.55,408.01,422.69,412.83z M407.67,410.52c-0.58,3.26,1.37,6.24,4.49,6.8c3.19,0.57,6.07-1.62,6.69-5.1
			c0.47-2.62-0.5-6.23-4.54-6.95C410.62,404.61,408.21,407.47,407.67,410.52z"/>
	</g>
	<g>
		<path class="st2" d="M240.92,338.4c-2.94,0.5-8.69,1.15-15.14,0c-7.23-1.29-12.86-4.2-16.74-9.5c-3.4-4.7-4.81-11.54-3.49-18.98
			c2.61-14.24,14.26-22.91,30.28-20.05c5.53,0.99,9.64,2.96,11.52,4.32l-2.39,4.77c-2.35-1.59-5.37-3.08-10.19-3.94
			c-11.63-2.08-20.5,3.8-22.64,15.78c-2.16,12.12,3.86,20.58,14.99,22.57c4.04,0.72,6.91,0.65,8.45,0.19l2.54-14.25l-9.71-1.73
			l0.89-4.96l15.74,2.81L240.92,338.4z"/>
		<path class="st2" d="M253.96,318.57c0.72-4.04,1.27-7.53,1.63-10.75l5.46,0.98l-0.99,6.77l0.28,0.05
			c2.38-4.33,6.66-6.56,10.84-5.82c0.71,0.13,1.19,0.29,1.73,0.53l-1.05,5.88c-0.61-0.26-1.24-0.44-2.09-0.59
			c-4.4-0.79-8.11,1.99-9.79,6.52c-0.29,0.83-0.61,1.79-0.8,2.86l-3.27,18.29l-6.17-1.1L253.96,318.57z"/>
		<path class="st2" d="M291.57,349.64l0.28-4.41l-0.21-0.04c-2.4,2.35-6.51,4.1-11.4,3.23c-6.95-1.24-9.62-6.76-8.73-11.73
			c1.48-8.29,9.66-11.51,22.91-9.08l0.13-0.71c0.51-2.84,0.64-8.08-6.38-9.33c-3.19-0.57-6.7-0.17-9.39,0.96l-0.68-4.36
			c3.16-1.34,7.49-1.81,11.81-1.04c10.49,1.87,11.77,9.49,10.54,16.37l-2.29,12.83c-0.53,2.98-0.91,5.91-0.9,8.32L291.57,349.64z
			 M293.77,331.97c-6.78-1.36-14.72-1.53-15.91,5.13c-0.72,4.04,1.63,6.44,4.82,7c4.47,0.8,7.81-1.53,9.32-4.26
			c0.33-0.6,0.6-1.28,0.71-1.92L293.77,331.97z"/>
		<path class="st2" d="M345.35,307.31l-7.4,41.47c-0.54,3.05-1.09,6.54-1.3,8.91l-5.6-1l0.78-6l-0.14-0.03
			c-2.6,3.49-7.3,5.65-12.9,4.65c-8.29-1.48-13.42-9.64-11.56-20.06c1.97-11.42,10.31-17.18,18.67-15.68
			c5.25,0.94,8.35,4.05,9.41,7.09l0.14,0.03l3.66-20.49L345.35,307.31z M333.76,336.18c0.14-0.78,0.26-1.86,0.19-2.67
			c-0.21-4.13-3.03-8-7.71-8.84c-6.45-1.15-11.29,3.84-12.65,11.42c-1.24,6.95,1.14,13.3,7.87,14.5c4.18,0.75,8.5-1.33,10.47-5.81
			c0.36-0.81,0.59-1.65,0.76-2.64L333.76,336.18z"/>
	</g>
</g>
</svg>
